<svg aria-hidden="true" style="width:0;height:0;position:absolute;overflow:hidden" xmlns="http://www.w3.org/2000/svg"><defs><symbol id="icon-logo" viewBox="0 0 34 32"><path fill="#f8d24e" style="fill:var(--color1,#f8d24e)" d="M17.184 14.109c1.613-4.366-1.727-6.756-3.942-8.327-.423-.321-.847-.621-1.19-.895A4.161 4.161 0 0 1 10.718.576a.447.447 0 0 0-.132-.455.463.463 0 0 0-.466-.094 7.478 7.478 0 0 0-2.054 1.22 4.857 4.857 0 0 0-1.901 3.846 5.639 5.639 0 0 0-1.097 1.144 4.193 4.193 0 0 0-.809 2.681 5.3 5.3 0 0 0-1.613 4.987 1.433 1.433 0 0 0 .753 2.664h.03v2.483a.947.947 0 0 0 .953.95h.741l1.207 10.43a.952.952 0 0 0 .944.845h5.022a.96.96 0 0 0 .948-.844l1.207-10.43h.741a.947.947 0 0 0 .953-.95V16.57h.03a1.447 1.447 0 0 0 1.337-1.996 1.411 1.411 0 0 0-.316-.47l-.013.004zM6.315 6.188c.61 2.284 2.964 3.184 5.111 3.986a.463.463 0 0 0 .645-.617.467.467 0 0 0-.319-.227C9.44 8.456 7.26 7.641 7.095 5.306c-.039-.642.082-1.283.352-1.867s.68-1.093 1.194-1.481a6.874 6.874 0 0 1 1.033-.709 5.362 5.362 0 0 0 0 .878 4.994 4.994 0 0 0 1.786 3.476c.351.3.788.608 1.27.937 1.114.798 2.38 1.689 3.184 2.897a4.512 4.512 0 0 1 .462 4.285h-1.871c-3.857 0-8.29-1.064-9.167-4.045a3.414 3.414 0 0 1 .999-3.466l-.021-.021zm3.472 14.394 1.414 1.41-1.414 1.41-1.414-1.419 1.414-1.402zm3.243 3.704-1.169 1.165-1.414-1.41 1.414-1.406 1.228 1.22-.059.431zM9.787 27.52l-1.414-1.41 1.414-1.41 1.414 1.41-1.414 1.41zm-.648-3.471-1.414 1.41-1.177-1.174-.051-.422 1.228-1.22 1.414 1.406zM7.073 26.11l-.284.283-.072-.642.356.359zm-.148 1.444.8-.798 1.554 1.562a.72.72 0 0 0 .03.093H7.023l-.097-.857zm4.928-.798.8.798-.097.845h-2.35l1.647-1.643zm.932-.363-.284-.283.36-.359-.076.642zm.423-3.691-.707-.718.898-.895-.191 1.613zm-1.359-1.36-1.342-1.334h2.684l-1.342 1.334zm-4.128 0-1.342-1.334h2.684l-1.342 1.334zm4.572 9.02H7.276c-.008-.001-.015-.004-.02-.01s-.009-.012-.01-.02l-.119-1.013h5.318l-.114 1.013c-.001.008-.005.016-.011.021s-.014.008-.023.008h-.004zm3.883-14.711h-1.474a.47.47 0 0 0-.355.117.46.46 0 0 0 .355.797h.525v2.483c-.001.008-.005.016-.011.021s-.014.008-.023.008H4.366c-.008 0-.016-.003-.023-.008s-.01-.013-.011-.021v-2.483h8.388a.46.46 0 0 0 0-.916H3.405a.516.516 0 0 1-.527-.31.53.53 0 0 1 0-.422.533.533 0 0 1 .312-.285.506.506 0 0 1 .215-.025h.961a.46.46 0 0 0 0-.916h-.847a4.51 4.51 0 0 1 .923-3.674c.296.921 1.059 2.179 2.964 3.18 1.791.933 4.162 1.41 7.046 1.41h1.694a.516.516 0 0 1 .527.31.526.526 0 0 1 0 .422.533.533 0 0 1-.312.285.506.506 0 0 1-.215.025h.03zM19.859 28.392l-.342.525.007.004.335-.529zm3.682.177.626-.014-.016-.725-.715.121.105.617zm.043 1.926.159.606.478-.126-.011-.494-.626.014zm-4.832.092.141-.61-.004-.001-.137.611zm-2.385-1.064.405-.478-.001-.001-.404.478zm-.862-1.957.626.003v-.003h-.626zm.299-1.37-.562-.276v.001l.562.276zm1.921-1.639.222.586.002-.001-.224-.585zm6.152-.159.624.049.041-.529-.515-.128-.151.608zm-.153 1.963-.117.615.687.13.054-.697-.624-.049zm-1.67-.804c-.94 0-1.73.1-2.307.354-.296.13-.565.313-.761.571a1.474 1.474 0 0 0-.298.905h1.252c0-.073.018-.114.044-.149.032-.043.106-.111.267-.182.336-.148.916-.248 1.803-.248v-1.252zm-3.366 1.832c0 .644.289 1.176.829 1.528l.684-1.049a.508.508 0 0 1-.26-.478h-1.252zm.836 1.532c.512.324 1.186.446 1.944.446v-1.253c-.654 0-1.051-.111-1.273-.251l-.67 1.058zm1.943.445c.743 0 1.469-.06 2.178-.18l-.21-1.235c-.637.108-1.293.162-1.968.162v1.253zm1.448-.783.043 1.926 1.252-.028-.043-1.926-1.252.028zm.509 1.307a9.327 9.327 0 0 1-2.373.285v1.252c.96 0 1.858-.107 2.691-.326l-.319-1.211zm-2.372.285c-.885 0-1.601-.07-2.159-.198l-.281 1.221c.681.157 1.498.23 2.44.23v-1.252zm-2.163-.199c-.598-.134-1.029-.276-1.317-.416l-.55 1.125c.413.202.952.37 1.594.513l.273-1.222zm-1.318-.416a3.813 3.813 0 0 1-.799-.514l-.81.955c.313.265.667.493 1.06.685l.55-1.125zm-.8-.515c-.426-.36-.644-.83-.64-1.476l-1.252-.006c-.005.985.352 1.82 1.084 2.438l.809-.957zm-.64-1.479c0-.421.083-.782.236-1.094l-1.125-.551a3.701 3.701 0 0 0-.364 1.645h1.252zm.235-1.094c.285-.579.788-1.029 1.581-1.33l-.444-1.171c-1.034.392-1.811 1.035-2.26 1.948l1.124.553zm1.583-1.33c.833-.32 1.763-.484 2.797-.484v-1.253c-1.168 0-2.252.186-3.246.568l.449 1.169zm2.797-.485c1.054 0 2.047.117 2.981.348l.301-1.216a13.586 13.586 0 0 0-3.282-.385v1.253zm2.507-.308-.153 1.963 1.249.097.153-1.963-1.249-.097zm.588 1.397a9.646 9.646 0 0 0-1.786-.188v1.252c.441 0 .957.053 1.553.166l.233-1.231zm6.11 1-.003.626.636.004-.007-.636-.626.007zm-.269-.813-.426.459.005.005.421-.464zm-1.559.061.434.452.005-.004-.438-.447zm-.38.74-.618-.102-.119.724.733.004.003-.626zm4.606 3.339.378.499.225-.171.021-.282-.624-.047zm-1.352.502-.135-.612-.004.001.138.611zm-4.697-.171-.214.589.005.002.208-.59zm-1.07-.569-.389.491.008.006.381-.497zm-.716-.899-.561.278.001.003.56-.28zm.734-3.798.416.468-.417-.467zm5.725-.679.25-.574-.006-.003-.245.576zm1.437 1.321-.563.274.002.003.562-.277zm.244 1.095.625.045.002-.023v-.023h-.626zm-.073 1.009-.003.626.585.003.042-.584-.625-.045zm-4.96-.025.003-.626-.817-.004.208.79.606-.16zm.71.875-.308.545.003.001.306-.547zm3.803-.214v-.626h-.125l-.116.048.241.578zm.331 0 .624.047.05-.673h-.675v.626zm-1.888-1.78c-.005-.453-.109-.939-.475-1.271l-.841.928c-.007-.007.007.001.025.055.019.057.037.153.039.301l1.252-.013zm-.469-1.266c-.329-.305-.76-.406-1.184-.406v1.252c.244 0 .318.058.332.071l.852-.918zm-1.184-.406c-.466 0-.9.146-1.239.479l.877.895c.068-.067.169-.121.363-.121v-1.252zm-1.235.474a1.91 1.91 0 0 0-.563 1.09l1.236.203a.666.666 0 0 1 .195-.39l-.867-.904zm.051 1.818 2.208.012.007-1.253-2.208-.012-.007 1.253zm4.23 2.214c-.137.104-.472.249-1.108.389l.269 1.223c.661-.145 1.227-.335 1.595-.614l-.757-.998zm-1.111.39a7.946 7.946 0 0 1-1.752.205v1.252c.662 0 1.338-.079 2.028-.236l-.277-1.222zm-1.752.205c-.59 0-1.076-.028-1.464-.08l-.167 1.241c.461.062 1.006.091 1.631.091v-1.252zm-1.464-.08a5.672 5.672 0 0 1-1.135-.276l-.417 1.181c.455.161.917.273 1.385.336l.167-1.241zm-1.129-.274a3.363 3.363 0 0 1-.903-.477l-.762.994c.357.274.772.492 1.238.661l.427-1.177zm-.895-.471a1.987 1.987 0 0 1-.544-.688l-1.12.56c.221.441.515.815.887 1.11l.777-.982zm-.543-.686c-.132-.266-.21-.609-.21-1.05h-1.253c0 .587.105 1.129.34 1.605l1.123-.555zm-.211-1.049c0-.441.079-.83.23-1.176l-1.149-.499a4.163 4.163 0 0 0-.333 1.674h1.253zm.23-1.176c.158-.364.351-.633.57-.827l-.833-.935a3.56 3.56 0 0 0-.886 1.264l1.149.499zm.57-.828c.673-.6 1.7-.948 3.179-.948v-1.253c-1.66 0-3.031.39-4.013 1.266l.834.935zm3.179-.948c.664 0 1.29.126 1.884.378l.489-1.153a6.018 6.018 0 0 0-2.373-.478v1.253zm1.878.376c.554.242.912.585 1.124 1.021l1.126-.548c-.359-.738-.959-1.276-1.75-1.621l-.501 1.148zm1.126 1.024c.117.237.18.506.18.817h1.252c0-.487-.1-.948-.309-1.372l-1.123.555zm.182.772-.073 1.009 1.249.091.073-1.009-1.249-.091zm.554.429-4.96-.024-.006 1.252 4.96.024.006-1.252zm-5.569.761c.146.555.505.976 1.007 1.26l.616-1.09c-.248-.14-.363-.302-.412-.489l-1.211.319zm1.01 1.262c.508.284 1.143.398 1.853.398v-1.252c-.595 0-.991-.098-1.242-.238l-.611 1.093zm1.853.397c.762 0 1.598-.206 2.497-.58l-.481-1.156c-.805.335-1.473.484-2.016.484v1.252zm2.256-.532h.33v-1.252h-.33v1.252zm-.294-.673-.116 1.553 1.249.093.116-1.553-1.249-.093z"/></symbol><symbol id="icon-burger" viewBox="0 0 32 32"><path fill="#fff" style="fill:var(--color1,#fff)" d="M26.733 14H5.267c-.7 0-1.267.425-1.267.95v.1c0 .525.567.95 1.267.95h21.466c.7 0 1.267-.425 1.267-.95v-.1c0-.525-.567-.95-1.267-.95zm0 6H5.267c-.7 0-1.267.425-1.267.95v.1c0 .525.567.95 1.267.95h21.466c.7 0 1.267-.425 1.267-.95v-.1c0-.525-.567-.95-1.267-.95zm0-12H5.267C4.567 8 4 8.425 4 8.95v.1c0 .525.567.95 1.267.95h21.466c.7 0 1.267-.425 1.267-.95v-.1c0-.525-.567-.95-1.267-.95z"/></symbol><symbol id="icon-close" viewBox="0 0 32 32"><path fill="#fcfcfc" style="fill:var(--color2,#fcfcfc)" d="M23.884 6.706 16 14.59 8.116 6.706a.996.996 0 0 0-1.672.736c0 .26.099.497.262.674l-.001-.001 7.88 7.884-7.882 7.882a.998.998 0 0 0 1.41 1.412l7.886-7.882 7.884 7.884a.996.996 0 0 0 1.672-.736.992.992 0 0 0-.262-.674l.001.001-7.884-7.884 7.884-7.886a.998.998 0 0 0-1.41-1.412v.002z"/></symbol><symbol id="icon-arrow" viewBox="0 0 82 32"><path d="M81.414 17.414a2 2 0 0 0 0-2.828L68.686 1.858a2 2 0 1 0-2.828 2.828L77.172 16 65.858 27.314a2 2 0 1 0 2.828 2.828l12.728-12.728zM0 18h80v-4H0v4z"/></symbol><symbol id="icon-cat" viewBox="0 0 32 32"><path fill="#84a178" style="fill:var(--color1,#84a178)" d="M16 0C7.212 0 0 7.212 0 16c0 7.499 5.262 14.312 12.25 16v-5.293c-.692.152-1.33.156-2.034-.052-.946-.279-1.714-.909-2.284-1.869-.364-.613-1.008-1.278-1.68-1.23l-.165-1.868c1.453-.124 2.711.886 3.457 2.14.332.558.713.884 1.203 1.029.473.14.982.072 1.574-.137.149-1.186.692-1.63 1.102-2.255v-.001c-4.167-.622-5.828-2.832-6.488-4.578-.874-2.317-.405-5.212 1.14-7.041.03-.036.084-.129.063-.194-.708-2.139.155-3.909.187-4.097.817.242.95-.243 3.551 1.337l.449.27c.188.112.129.048.317.034A13.544 13.544 0 0 1 16 7.723c1.136.015 2.273.178 3.404.484l.145.015c-.013-.002.04-.009.127-.062 3.248-1.968 3.132-1.324 4.003-1.608.032.188.883 1.987.182 4.099-.095.291 2.816 2.956 1.203 7.235-.659 1.746-2.32 3.957-6.487 4.578v.001c.534.814 1.176 1.247 1.173 2.927V32C26.738 30.312 32 23.499 32 16c0-8.788-7.212-16-16-16z"/></symbol><symbol id="icon-cow" viewBox="0 0 32 32"><path d="M6.168.192c-.261.225-1.006 1.781-1.274 2.63-.319 1.052-.427 1.841-.384 2.931.058 1.556.449 2.735 1.31 3.968.224.323.405.601.405.624 0 .015-.138.03-.311.03-.746 0-2.143.248-3.214.571-1.701.511-2.7 1.405-2.7 2.405 0 .353.319.954.659 1.262.659.594 2.1 1.157 3.649 1.428.536.098 2.128.263 2.483.271.065 0 .087.346.087 1.48 0 .977.036 1.736.109 2.202.261 1.668 1.071 3.434 2.143 4.682l.369.428-.246.398c-.362.564-.5.992-.543 1.631-.109 1.533.847 2.893 2.693 3.848 3.518 1.826 8.985 1.112 11.033-1.443.999-1.247 1.115-2.675.326-3.968l-.246-.398.442-.534c.825-.992 1.361-1.984 1.767-3.239.34-1.067.471-2.097.471-3.727 0-.744.022-1.36.058-1.36.333-.008 1.933-.18 2.44-.271 1.557-.271 2.968-.827 3.649-1.428.34-.308.659-.909.659-1.262 0-1.112-1.129-2.014-3.229-2.555-.688-.18-1.984-.398-2.613-.436l-.297-.023.326-.451c.405-.549.912-1.616 1.108-2.315.55-2.021.21-4.374-.97-6.62-.492-.932-.833-1.15-1.231-.782-.152.143-.217.338-.362 1.045-.449 2.247-1.281 4.028-2.498 5.343l-.536.586H10.247l-.478-.518C8.582 5.317 7.72 3.469 7.271 1.214 7.126.508 7.061.312 6.909.169c-.239-.218-.471-.21-.738.023zm.927 4.457c.384.842.862 1.631 1.426 2.36l.449.579-.471.353a4.73 4.73 0 0 0-1.173 1.368l-.138.248-.348-.473c-1.187-1.638-1.484-3.645-.854-5.726.304-1.007.297-.999.572-.128.13.421.376 1.06.536 1.42zM25.94 3.063c.297.894.413 1.608.413 2.532 0 1.368-.362 2.525-1.122 3.562l-.34.466-.253-.428a4.5 4.5 0 0 0-1.267-1.39c-.195-.128-.347-.255-.347-.271 0-.023.137-.195.311-.383.804-.894 1.665-2.502 2.092-3.885.13-.428.261-.782.282-.782s.13.263.232.579zm-3.699 5.493c.804.338 1.571 1.308 1.694 2.127.065.451.217.736.413.782.087.015.688.068 1.332.113 2.288.15 4.09.639 4.858 1.308.355.316.319.579-.109.902-.854.646-2.7 1.135-4.583 1.217-1.245.053-1.506.09-1.672.263-.123.128-.138.263-.138 1.623 0 1.841-.094 2.901-.326 3.757-.326 1.165-.97 2.405-1.723 3.284l-.311.361-.644-.383a7.965 7.965 0 0 0-2.389-.969c-2.744-.654-5.777-.256-7.819 1.029l-.471.301-.297-.353c-.405-.473-1.043-1.488-1.296-2.059-.557-1.293-.724-2.345-.724-4.659 0-2.247.116-2.082-1.549-2.172-2.128-.113-3.75-.496-4.771-1.142-.753-.481-.63-.909.42-1.413 1.006-.488 2.389-.781 4.308-.902 1.491-.098 1.528-.12 1.665-.842.203-1.09 1.006-1.991 2.02-2.277.253-.075 1.672-.09 6.016-.083l5.683.015.413.173zm-4.069 15.556c1.774.436 3.099 1.247 3.671 2.254.137.233.195.473.224.842.029.458.007.571-.166.947-.804 1.706-3.757 2.833-6.762 2.578-3.613-.301-5.987-2.315-5.053-4.291.507-1.067 2.223-2.089 4.033-2.39.297-.045.594-.098.652-.113s.71-.015 1.448 0c1.006.023 1.491.068 1.955.173z"/><path d="M10.99 12.321c-.449.15-.753.346-1.158.751-.355.338-.384.736-.087.977.275.225.536.195.869-.098.42-.368.746-.518 1.151-.518.405-.008.717.135 1.151.518.333.293.594.323.869.098.145-.12.188-.218.188-.443 0-.233-.051-.338-.304-.594-.717-.721-1.781-.999-2.679-.691zM19.432 12.313c-.463.173-1.057.564-1.296.857-.232.286-.239.609 0 .849.239.256.529.241.876-.045.854-.706 1.491-.729 2.281-.075.203.173.434.308.507.308.355 0 .644-.316.644-.691 0-.24-.601-.797-1.144-1.06-.601-.293-1.318-.346-1.868-.143zM12.04 26.224c-.21.203-.282.496-.174.729.08.188.203.263.702.398.224.06.319.135.398.323.101.248.109.248.666.27l.557.023v-.21c-.007-.301-.174-.736-.391-1.037-.253-.346-.695-.571-1.195-.616-.34-.03-.427-.015-.565.12zM18.954 26.171c-.362.098-.883.586-1.028.969-.065.173-.13.481-.137.684-.015.323.014.398.188.556.427.376.992.083.992-.518 0-.293.217-.496.601-.571.405-.075.55-.24.557-.624 0-.504-.449-.699-1.173-.496z"/></symbol><symbol id="icon-ice-crema" viewBox="0 0 32 32"><path d="M16.108.107c.08.214.241 1.252.241 1.573 0 .797-.295 1.54-.837 2.122-.449.482-.897.75-1.975 1.185-1.198.489-1.694.783-2.256 1.339-.569.569-.904 1.192-1.024 1.921-.134.797 0 1.359.408 1.68l.208.161-.328.208c-.663.435-1.868 1.459-2.075 1.774-.402.603-.361 1.165.094 1.392l.214.107-.241.228c-.361.341-.435.576-.382 1.192.033.408.02.629-.074.964-.114.435-.114.442.033.75.147.301.562.683.937.843.181.08.187.107.228.723.02.355.053 1.486.08 2.517.02 1.031.067 1.975.107 2.089a.79.79 0 0 0 .274.361c.388.268.656.556.83.89.194.382.408 1.319 1.058 4.559l.455 2.276.281.268c.536.529 1.56.77 3.247.77 1.694 0 2.705-.234 3.24-.763l.288-.274.415-2.109c.917-4.613.997-4.867 1.714-5.436.221-.181.435-.402.475-.502.047-.114.094-.991.127-2.316.027-1.178.067-2.343.094-2.591l.04-.449.435-.328c.549-.422.763-.803.763-1.393-.007-.696-.462-1.459-1.292-2.142l-.395-.321.194-.274c.81-1.118.301-2.664-1.205-3.695l-.455-.315.167-.174c.743-.797.864-3.173.241-4.827-.375-.984-1.232-2.055-2.283-2.845C17.659.857 16.239 0 16.112 0c-.027 0-.027.047-.007.107zm1.928 2.336c.355.348.783.823.951 1.064.997 1.392 1.252 3.14.649 4.425-.241.522-.964 1.299-1.633 1.761-1.024.71-3.327 1.901-4.934 2.557-2.584 1.051-4.084 1.252-4.258.562-.067-.261.127-.469.951-1.018.743-.509 4.077-2.986 4.137-3.086.02-.027-.321.127-.75.341-1.453.736-2.142.596-2.109-.428.02-.743.556-1.587 1.299-2.069.187-.12.77-.388 1.305-.603 1.761-.71 2.296-1.071 2.892-1.962.355-.529.743-1.506.77-1.921.007-.147.034-.261.054-.261s.321.288.676.636zm1.828 7.606c.489.274.997.743 1.218 1.111.388.663.187 1.325-.649 2.169-.91.924-2.464 1.808-4.171 2.37-1.573.515-3.079.756-5.235.83l-1.339.047.87.053c1.125.074 3.3.007 4.144-.127 2.243-.355 4.151-1.064 5.516-2.042.308-.221.629-.402.716-.402.221 0 1.185.924 1.379 1.312.107.221.134.382.114.596-.1.89-1.185 1.366-3.802 1.68-3.2.382-7.384.007-9.172-.817-.844-.388-.984-.609-.77-1.198.067-.187.08-.408.054-.723-.033-.415-.027-.469.12-.623.335-.361.897-.569 2.959-1.091a28.11 28.11 0 0 0 2.176-.656c1.138-.415 3.274-1.493 4.264-2.156.93-.616 1.064-.643 1.607-.335zm-8.89 8.194c1.406.408 2.651.529 4.967.482 1.741-.034 2.812-.141 4.358-.415.315-.053.589-.1.623-.1.074 0 .053 2.571-.027 3.247-.087.716-.281 1.272-.489 1.406-.214.141-1.285.288-2.718.368-2.939.161-5.958 0-6.895-.375-.509-.207-.562-.475-.569-2.959 0-1.654.013-1.881.1-1.848.053.02.348.107.649.194zm1.586 5.69c.482.06 1.004.121 1.165.141l.288.034-.254.281c-.328.355-.83 1.064-1.011 1.426-.207.415-.274.442-.582.274l-.261-.147-.147-.91c-.08-.495-.167-.971-.187-1.051-.06-.174-.12-.174.991-.047zm7.137-.074c0 .013-.033.187-.067.382-.04.201-.208 1.292-.375 2.43-.341 2.377-.569 3.495-.777 3.869-.288.502-.977.797-2.095.89-.435.034-1.747-.053-1.821-.12-.053-.06 1.098-1.486 1.279-1.58.167-.094.214-.08.783.214.663.348.997.402.997.181s-.174-.435-.602-.73c-.395-.281-.536-.442-.536-.629 0-.053.194-.355.428-.669s.576-.817.75-1.118l.328-.542.301.04c.609.087.77.08.75-.053-.013-.067-.127-.261-.254-.422-.127-.167-.228-.335-.228-.368 0-.127.623-1.299.823-1.546.174-.214.315-.321.315-.228zm-4.184.536c.335.221 1.593 1.312 1.674 1.446.034.06-1.259 2.082-1.513 2.37-.027.034-.167-.033-.308-.141a22.133 22.133 0 0 0-1.165-.803l-.904-.596.542-.917c.964-1.613.944-1.587 1.151-1.587.107 0 .341.1.522.228zm2.537.241c-.234.288-.428.469-.509.469-.174 0-.455-.154-.93-.502l-.395-.288.79-.047c.428-.02.844-.047.917-.06.536-.087.536-.08.127.428zm-5.061 3.22c.616.241 1.66.81 1.962 1.064.214.174.214.187.127.402a6.675 6.675 0 0 1-.415.716c-.174.268-.375.602-.449.743-.214.415-.281.449-.723.328-.475-.141-.73-.382-.864-.817-.181-.609-.469-2.33-.435-2.598.013-.1.295-.04.797.161z"/></symbol><symbol id="icon-vector" viewBox="0 0 22 32"><path d="M3.103.726a2.4 2.4 0 0 0 0 3.394L14.983 16 3.103 27.88a2.398 2.398 0 0 0 1.705 4.067 2.393 2.393 0 0 0 1.688-.674l13.577-13.577a2.4 2.4 0 0 0 0-3.394L6.496.725a2.4 2.4 0 0 0-3.394 0z"/></symbol><symbol id="icon-weight" viewBox="0 0 32 32"><path d="M14.177.547c-3.974.589-7.247 2.796-8.451 5.685-.384.913-.488 1.473-.488 2.573.007.812.037 1.114.162 1.553.259.863.443 1.301.827 1.919l.355.575-.399.489c-3.154 3.924-3.502 9.444-.872 13.793.982 1.632 2.585 3.234 4.152 4.169l.465.273 12.743-.108.303-.165c1.056-.597 2.549-1.926 3.383-3.004a12.61 12.61 0 0 0 2.423-5.621c.118-.74.118-2.932-.007-3.63-.377-2.149-1.182-3.989-2.453-5.621-.244-.309-.436-.568-.436-.589 0-.014.133-.237.288-.489a7.762 7.762 0 0 0 .864-1.962c.199-.719.199-2.516 0-3.234-.709-2.552-2.837-4.679-5.843-5.851C20.351.971 18.91.619 17.98.504c-.864-.101-2.999-.079-3.804.043zm4.499 1.171c3.945.769 6.833 3.184 7.365 6.16.118.668.044 1.804-.155 2.437-.199.618-.569 1.344-1.005 1.962-.177.252-.325.539-.325.633s.155.338.377.582c1.847 2.048 2.822 4.614 2.822 7.389-.007 3.155-1.219 5.922-3.553 8.093-.399.374-.968.841-1.271 1.042l-.554.374-12.211.05-.473-.302c-1.714-1.114-3.258-2.954-4.115-4.909-1.079-2.472-1.189-5.34-.31-7.913.465-1.337 1.086-2.429 2.031-3.579.384-.46.561-.733.561-.863 0-.108-.192-.46-.443-.827-.886-1.287-1.248-2.717-1.034-4.068.222-1.366.842-2.487 1.987-3.601 1.492-1.445 3.575-2.401 6.02-2.76 1.012-.151 3.25-.093 4.285.101z"/><path d="M14.51 2.983c-3.029.496-5.4 2.178-6.176 4.384-.177.496-.207.69-.207 1.402s.03.906.207 1.402c.111.316.318.755.458.978.384.618.554.64 1.315.18a11.949 11.949 0 0 1 3.804-1.488c.916-.187 2.674-.259 3.671-.144 1.559.18 3.25.74 4.602 1.538.384.223.776.41.872.41.561 0 1.278-1.617 1.278-2.875 0-2.796-2.674-5.189-6.464-5.786-.805-.129-2.585-.129-3.361 0zm3.656 1.15c1.271.273 2.438.791 3.317 1.473 1.182.913 1.817 2.185 1.714 3.414-.037.489-.222 1.15-.332 1.222-.029.014-.443-.158-.916-.388a14.721 14.721 0 0 0-3.228-1.1c-.687-.144-.975-.165-2.512-.158-1.514 0-1.832.022-2.489.158a13.254 13.254 0 0 0-3.117 1.064c-1.101.525-1.042.532-1.241-.115-.258-.841-.096-1.955.406-2.796.266-.446.997-1.186 1.529-1.553 1.012-.697 1.899-1.013 3.804-1.358.391-.072 2.563.029 3.066.137zM16.962 13.405c-.207.259-.207.503.007.712.14.137.281.173.79.208.99.072 1.935.359 2.785.848.606.359 1.529 1.229 1.943 1.854.613.898 1.034 2.185 1.034 3.134 0 .331.029.431.185.575.236.237.547.237.776 0 .163-.165.17-.208.125-.913-.207-3.479-3.184-6.383-6.744-6.577l-.739-.043-.163.201z"/></symbol><symbol id="icon-close-line" viewBox="0 0 32 32"><path d="m17.253 16 7.369-7.369a.889.889 0 0 0-1.255-1.252l.001-.001-7.369 7.369L8.63 7.37a.893.893 0 1 0-1.263 1.26l.001.001L14.747 16l-7.379 7.369a.888.888 0 1 0 1.252 1.254l.001-.001L16 17.253l7.368 7.369a.889.889 0 0 0 1.252-1.255l.001.001-7.368-7.369z"/></symbol><symbol id="icon-close-cross" viewBox="0 0 32 32"><path d="m17.253 16 7.369-7.369a.886.886 0 0 0-.047-1.207.89.89 0 0 0-1.206-.047L16 14.746 8.631 7.368A.892.892 0 0 0 7.369 8.63l7.378 7.369-7.378 7.369a.891.891 0 0 0-.05 1.304.89.89 0 0 0 1.304-.051l7.378-7.369 7.369 7.369a.885.885 0 0 0 1.206-.047.89.89 0 0 0 .047-1.206l-7.369-7.369z"/></symbol><symbol id="icon-facebook" viewBox="0 0 32 32"><path style="fill:var(--color1,#f8d24e)" d="M16 32c8.837 0 16-7.163 16-16S24.837 0 16 0 0 7.163 0 16s7.163 16 16 16z"/><path d="M20.446 15.982h-2.61v9.619h-3.955v-9.619H12v-3.38h1.881v-2.187c0-1.564.739-4.014 3.99-4.014l2.929.012v3.281h-2.125c-.349 0-.839.175-.839.921v1.989h2.955l-.346 3.377z"/></symbol><symbol id="icon-github" viewBox="0 0 32 32"><path style="fill:var(--color1,#f8d24e)" d="M32 16c0 8.837-7.163 16-16 16S0 24.837 0 16 7.163 0 16 0s16 7.163 16 16z"/><path d="M16 6.588c-5.169 0-9.412 4.242-9.412 9.412 0 4.411 3.095 8.419 7.206 9.412v-3.114a2.307 2.307 0 0 1-1.197-.03c-.556-.164-1.008-.535-1.344-1.1-.214-.361-.593-.752-.988-.723l-.097-1.099c.855-.073 1.595.521 2.034 1.259.195.328.419.52.708.605.278.082.578.043.926-.08.088-.698.407-.959.648-1.326v-.001c-2.451-.366-3.428-1.666-3.816-2.693-.514-1.363-.238-3.066.671-4.142.018-.021.05-.076.037-.114-.417-1.258.091-2.299.11-2.41.481.142.559-.143 2.089.786l.264.159c.111.066.076.028.186.02A8.031 8.031 0 0 1 16 11.131a8.016 8.016 0 0 1 2.002.285l.086.009c-.007-.001.023-.005.075-.036 1.911-1.157 1.842-.779 2.355-.946.019.111.519 1.169.107 2.411-.056.171 1.657 1.739.708 4.256-.388 1.027-1.365 2.328-3.816 2.693v.001c.314.479.692.734.69 1.722v3.887c4.111-.993 7.206-5 7.206-9.412 0-5.169-4.242-9.412-9.412-9.412z"/></symbol><symbol id="icon-telegram" viewBox="0 0 32 32"><path style="fill:var(--color1,#f8d24e)" d="M32 16c0 8.837-7.163 16-16 16S0 24.837 0 16 7.163 0 16 0s16 7.163 16 16z"/><path d="m12.869 18.375-.318 4.169c.454 0 .651-.182.887-.401l2.13-1.9 4.415 3.017c.81.421 1.38.199 1.598-.695l2.898-12.672.001-.001c.257-1.117-.433-1.554-1.222-1.28L6.226 14.698c-1.162.421-1.145 1.026-.198 1.3l4.354 1.264 10.115-5.907c.476-.294.909-.131.553.163l-8.182 6.857z"/></symbol><symbol id="icon-header-dots" viewBox="0 0 100 32"><path fill="#f8d24e" style="fill:var(--color1,#f8d24e)" d="M45.81 25.797c0 .287-.219.52-.488.52s-.488-.233-.488-.52c0-.287.219-.52.488-.52s.488.233.488.52zM46.949 25.104c0 .287-.219.52-.488.52s-.488-.233-.488-.52c0-.287.219-.52.488-.52s.488.233.488.52zM44.915 27.705c0 .287-.219.52-.488.52s-.488-.233-.488-.52c0-.287.219-.52.488-.52s.488.233.488.52zM45.972 27.011c0 .287-.219.52-.488.52s-.488-.233-.488-.52c0-.287.219-.52.488-.52s.488.233.488.52zM47.193 26.231c0 .287-.219.52-.488.52s-.488-.233-.488-.52c0-.287.219-.52.488-.52s.488.233.488.52zM48.332 25.537c0 .287-.219.52-.488.52s-.488-.233-.488-.52c0-.287.219-.52.488-.52s.488.233.488.52z"/><path fill="#f8d24e" style="fill:var(--color1,#f8d24e)" d="M46.705 27.792c0 .287-.219.52-.488.52s-.488-.233-.488-.52c0-.287.219-.52.488-.52s.488.233.488.52zM47.762 27.098c0 .287-.219.52-.488.52s-.488-.233-.488-.52c0-.287.219-.52.488-.52s.488.233.488.52zM48.983 26.318c0 .287-.219.52-.488.52s-.488-.233-.488-.52c0-.287.219-.52.488-.52s.488.233.488.52zM50.122 25.624c0 .287-.219.52-.488.52s-.488-.233-.488-.52c0-.287.219-.52.488-.52s.488.233.488.52zM48.82 27.792c0 .287-.219.52-.488.52s-.488-.233-.488-.52c0-.287.219-.52.488-.52s.488.233.488.52zM49.878 27.098c0 .287-.219.52-.488.52s-.488-.233-.488-.52c0-.287.219-.52.488-.52s.488.233.488.52zM51.098 26.318c0 .287-.219.52-.488.52s-.488-.233-.488-.52c0-.287.219-.52.488-.52s.488.233.488.52zM52.238 25.624c0 .287-.219.52-.488.52s-.488-.233-.488-.52c0-.287.219-.52.488-.52s.488.233.488.52z"/><path fill="#f8d24e" style="fill:var(--color1,#f8d24e)" d="M50.61 27.705c0 .287-.219.52-.488.52s-.488-.233-.488-.52c0-.287.219-.52.488-.52s.488.233.488.52zM51.668 27.011c0 .287-.219.52-.488.52s-.488-.233-.488-.52c0-.287.219-.52.488-.52s.488.233.488.52zM52.889 26.231c0 .287-.219.52-.488.52s-.488-.233-.488-.52c0-.287.219-.52.488-.52s.488.233.488.52zM54.028 25.537c0 .287-.219.52-.488.52s-.488-.233-.488-.52c0-.287.219-.52.488-.52s.488.233.488.52zM52.644 27.618c0 .287-.219.52-.488.52s-.488-.233-.488-.52c0-.287.219-.52.488-.52s.488.233.488.52zM53.702 26.925c0 .287-.219.52-.488.52s-.488-.233-.488-.52c0-.287.219-.52.488-.52s.488.233.488.52zM54.923 26.144c0 .287-.219.52-.488.52s-.488-.233-.488-.52c0-.287.219-.52.488-.52s.488.233.488.52zM56.062 25.45c0 .287-.219.52-.488.52s-.488-.233-.488-.52c0-.287.219-.52.488-.52s.488.233.488.52z"/><path fill="#f8d24e" style="fill:var(--color1,#f8d24e)" d="M54.516 25.364c0 .287-.219.52-.488.52s-.488-.233-.488-.52c0-.287.219-.52.488-.52s.488.233.488.52zM55.574 24.67c0 .287-.219.52-.488.52s-.488-.233-.488-.52c0-.287.219-.52.488-.52s.488.233.488.52zM56.794 23.889c0 .287-.219.52-.488.52s-.488-.233-.488-.52c0-.287.219-.52.488-.52s.488.233.488.52zM57.933 23.196c0 .287-.219.52-.488.52s-.488-.233-.488-.52c0-.287.219-.52.488-.52s.488.233.488.52z"/></symbol><symbol id="icon-top-menu-lines" viewBox="0 0 32 32"><path d="M26.733 14H5.266c-.7 0-1.267.425-1.267.95v.1c0 .525.567.95 1.267.95h21.467c.7 0 1.267-.425 1.267-.95v-.1c0-.525-.567-.95-1.267-.95zM26.733 20H5.266c-.7 0-1.267.425-1.267.95v.1c0 .525.567.95 1.267.95h21.467c.7 0 1.267-.425 1.267-.95v-.1c0-.525-.567-.95-1.267-.95zM26.733 8H5.266c-.7 0-1.267.425-1.267.95v.1c0 .525.567.95 1.267.95h21.467c.7 0 1.267-.425 1.267-.95v-.1c0-.525-.567-.95-1.267-.95z"/></symbol><symbol id="icon-top-menu-cross" viewBox="0 0 32 32"><path d="M23.884 6.706 16 14.59 8.116 6.706a.995.995 0 0 0-1.38.031 1 1 0 0 0-.031 1.38l7.88 7.884-7.882 7.882a1.002 1.002 0 0 0-.018 1.427.998.998 0 0 0 1.427-.015l7.886-7.882 7.884 7.884a1 1 0 0 0 1.38-.03 1 1 0 0 0 .03-1.38l-7.884-7.884 7.884-7.886a1.002 1.002 0 0 0 .018-1.427.998.998 0 0 0-1.427.015v.002z"/></symbol></defs></svg>