<svg aria-hidden="true" style="position: absolute; width: 0; height: 0; overflow: hidden;" version="1.1" xmlns="http://www.w3.org/2000/svg" xmlns:xlink="http://www.w3.org/1999/xlink">
<defs>
<symbol id="icon-arrow" viewBox="0 0 82 32">
<path d="M81.414 17.414c0.781-0.781 0.781-2.047 0-2.828l-12.728-12.728c-0.781-0.781-2.047-0.781-2.828 0s-0.781 2.047 0 2.828l11.314 11.314-11.314 11.314c-0.781 0.781-0.781 2.047 0 2.828s2.047 0.781 2.828 0l12.728-12.728zM0 18h80v-4h-80v4z"></path>
</symbol>
<symbol id="icon-cat" viewBox="0 0 32 32">
<path fill="#84a178" style="fill: var(--color1, #84a178)" d="M16 0c-8.788 0-16 7.212-16 16 0 7.499 5.262 14.312 12.25 16v-5.293c-0.692 0.152-1.33 0.156-2.034-0.052-0.946-0.279-1.714-0.909-2.284-1.869-0.364-0.613-1.008-1.278-1.68-1.23l-0.165-1.868c1.453-0.124 2.711 0.886 3.457 2.14 0.332 0.558 0.713 0.884 1.203 1.029 0.473 0.14 0.982 0.072 1.574-0.137 0.149-1.186 0.692-1.63 1.102-2.255v-0.001c-4.167-0.622-5.828-2.832-6.488-4.578-0.874-2.317-0.405-5.212 1.14-7.041 0.030-0.036 0.084-0.129 0.063-0.194-0.708-2.139 0.155-3.909 0.187-4.097 0.817 0.242 0.95-0.243 3.551 1.337l0.449 0.27c0.188 0.112 0.129 0.048 0.317 0.034 1.086-0.295 2.23-0.458 3.358-0.472 1.136 0.015 2.273 0.178 3.404 0.484l0.145 0.015c-0.013-0.002 0.040-0.009 0.127-0.062 3.248-1.968 3.132-1.324 4.003-1.608 0.032 0.188 0.883 1.987 0.182 4.099-0.095 0.291 2.816 2.956 1.203 7.235-0.659 1.746-2.32 3.957-6.487 4.578v0.001c0.534 0.814 1.176 1.247 1.173 2.927v6.608c6.988-1.688 12.25-8.501 12.25-16 0-8.788-7.212-16-16-16v0z"></path>
</symbol>
<symbol id="icon-cow" viewBox="0 0 32 32">
<path d="M6.168 0.192c-0.261 0.225-1.006 1.781-1.274 2.63-0.319 1.052-0.427 1.841-0.384 2.931 0.058 1.556 0.449 2.735 1.31 3.968 0.224 0.323 0.405 0.601 0.405 0.624 0 0.015-0.138 0.030-0.311 0.030-0.746 0-2.143 0.248-3.214 0.571-1.701 0.511-2.7 1.405-2.7 2.405 0 0.353 0.319 0.954 0.659 1.262 0.659 0.594 2.1 1.157 3.649 1.428 0.536 0.098 2.128 0.263 2.483 0.271 0.065 0 0.087 0.346 0.087 1.48 0 0.977 0.036 1.736 0.109 2.202 0.261 1.668 1.071 3.434 2.143 4.682l0.369 0.428-0.246 0.398c-0.362 0.564-0.5 0.992-0.543 1.631-0.109 1.533 0.847 2.893 2.693 3.848 3.518 1.826 8.985 1.112 11.033-1.443 0.999-1.247 1.115-2.675 0.326-3.968l-0.246-0.398 0.442-0.534c0.825-0.992 1.361-1.984 1.767-3.239 0.34-1.067 0.471-2.097 0.471-3.727 0-0.744 0.022-1.36 0.058-1.36 0.333-0.008 1.933-0.18 2.44-0.271 1.557-0.271 2.968-0.827 3.649-1.428 0.34-0.308 0.659-0.909 0.659-1.262 0-1.112-1.129-2.014-3.229-2.555-0.688-0.18-1.984-0.398-2.613-0.436l-0.297-0.023 0.326-0.451c0.405-0.549 0.912-1.616 1.108-2.315 0.55-2.021 0.21-4.374-0.97-6.62-0.492-0.932-0.833-1.15-1.231-0.782-0.152 0.143-0.217 0.338-0.362 1.045-0.449 2.247-1.281 4.028-2.498 5.343l-0.536 0.586h-11.453l-0.478-0.518c-1.187-1.308-2.049-3.156-2.498-5.411-0.145-0.706-0.21-0.902-0.362-1.045-0.239-0.218-0.471-0.21-0.738 0.023zM7.095 4.649c0.384 0.842 0.862 1.631 1.426 2.36l0.449 0.579-0.471 0.353c-0.442 0.338-0.854 0.819-1.173 1.368l-0.138 0.248-0.348-0.473c-1.187-1.638-1.484-3.645-0.854-5.726 0.304-1.007 0.297-0.999 0.572-0.128 0.13 0.421 0.376 1.060 0.536 1.42zM25.94 3.063c0.297 0.894 0.413 1.608 0.413 2.532 0 1.368-0.362 2.525-1.122 3.562l-0.34 0.466-0.253-0.428c-0.297-0.526-0.804-1.075-1.267-1.39-0.195-0.128-0.347-0.255-0.347-0.271 0-0.023 0.137-0.195 0.311-0.383 0.804-0.894 1.665-2.502 2.092-3.885 0.13-0.428 0.261-0.782 0.282-0.782s0.13 0.263 0.232 0.579zM22.241 8.556c0.804 0.338 1.571 1.308 1.694 2.127 0.065 0.451 0.217 0.736 0.413 0.782 0.087 0.015 0.688 0.068 1.332 0.113 2.288 0.15 4.090 0.639 4.858 1.308 0.355 0.316 0.319 0.579-0.109 0.902-0.854 0.646-2.7 1.135-4.583 1.217-1.245 0.053-1.506 0.090-1.672 0.263-0.123 0.128-0.138 0.263-0.138 1.623 0 1.841-0.094 2.901-0.326 3.757-0.326 1.165-0.97 2.405-1.723 3.284l-0.311 0.361-0.644-0.383c-0.782-0.466-1.513-0.767-2.389-0.969-2.744-0.654-5.777-0.256-7.819 1.029l-0.471 0.301-0.297-0.353c-0.405-0.473-1.043-1.488-1.296-2.059-0.557-1.293-0.724-2.345-0.724-4.659 0-2.247 0.116-2.082-1.549-2.172-2.128-0.113-3.75-0.496-4.771-1.142-0.753-0.481-0.63-0.909 0.42-1.413 1.006-0.488 2.389-0.781 4.308-0.902 1.491-0.098 1.528-0.12 1.665-0.842 0.203-1.090 1.006-1.991 2.020-2.277 0.253-0.075 1.672-0.090 6.016-0.083l5.683 0.015 0.413 0.173zM18.172 24.112c1.774 0.436 3.099 1.247 3.671 2.254 0.137 0.233 0.195 0.473 0.224 0.842 0.029 0.458 0.007 0.571-0.166 0.947-0.804 1.706-3.757 2.833-6.762 2.578-3.613-0.301-5.987-2.315-5.053-4.291 0.507-1.067 2.223-2.089 4.033-2.39 0.297-0.045 0.594-0.098 0.652-0.113s0.71-0.015 1.448 0c1.006 0.023 1.491 0.068 1.955 0.173z"></path>
<path d="M10.99 12.321c-0.449 0.15-0.753 0.346-1.158 0.751-0.355 0.338-0.384 0.736-0.087 0.977 0.275 0.225 0.536 0.195 0.869-0.098 0.42-0.368 0.746-0.518 1.151-0.518 0.405-0.008 0.717 0.135 1.151 0.518 0.333 0.293 0.594 0.323 0.869 0.098 0.145-0.12 0.188-0.218 0.188-0.443 0-0.233-0.051-0.338-0.304-0.594-0.717-0.721-1.781-0.999-2.679-0.691z"></path>
<path d="M19.432 12.313c-0.463 0.173-1.057 0.564-1.296 0.857-0.232 0.286-0.239 0.609 0 0.849 0.239 0.256 0.529 0.241 0.876-0.045 0.854-0.706 1.491-0.729 2.281-0.075 0.203 0.173 0.434 0.308 0.507 0.308 0.355 0 0.644-0.316 0.644-0.691 0-0.24-0.601-0.797-1.144-1.060-0.601-0.293-1.318-0.346-1.868-0.143z"></path>
<path d="M12.040 26.224c-0.21 0.203-0.282 0.496-0.174 0.729 0.080 0.188 0.203 0.263 0.702 0.398 0.224 0.060 0.319 0.135 0.398 0.323 0.101 0.248 0.109 0.248 0.666 0.27l0.557 0.023v-0.21c-0.007-0.301-0.174-0.736-0.391-1.037-0.253-0.346-0.695-0.571-1.195-0.616-0.34-0.030-0.427-0.015-0.565 0.12z"></path>
<path d="M18.954 26.171c-0.362 0.098-0.883 0.586-1.028 0.969-0.065 0.173-0.13 0.481-0.137 0.684-0.015 0.323 0.014 0.398 0.188 0.556 0.427 0.376 0.992 0.083 0.992-0.518 0-0.293 0.217-0.496 0.601-0.571 0.405-0.075 0.55-0.24 0.557-0.624 0-0.504-0.449-0.699-1.173-0.496z"></path>
</symbol>
<symbol id="icon-ice-crema" viewBox="0 0 32 32">
<path d="M16.108 0.107c0.080 0.214 0.241 1.252 0.241 1.573 0 0.797-0.295 1.54-0.837 2.122-0.449 0.482-0.897 0.75-1.975 1.185-1.198 0.489-1.694 0.783-2.256 1.339-0.569 0.569-0.904 1.192-1.024 1.921-0.134 0.797 0 1.359 0.408 1.68l0.208 0.161-0.328 0.208c-0.663 0.435-1.868 1.459-2.075 1.774-0.402 0.603-0.361 1.165 0.094 1.392l0.214 0.107-0.241 0.228c-0.361 0.341-0.435 0.576-0.382 1.192 0.033 0.408 0.020 0.629-0.074 0.964-0.114 0.435-0.114 0.442 0.033 0.75 0.147 0.301 0.562 0.683 0.937 0.843 0.181 0.080 0.187 0.107 0.228 0.723 0.020 0.355 0.053 1.486 0.080 2.517 0.020 1.031 0.067 1.975 0.107 2.089 0.033 0.121 0.161 0.281 0.274 0.361 0.388 0.268 0.656 0.556 0.83 0.89 0.194 0.382 0.408 1.319 1.058 4.559l0.455 2.276 0.281 0.268c0.536 0.529 1.56 0.77 3.247 0.77 1.694 0 2.705-0.234 3.24-0.763l0.288-0.274 0.415-2.109c0.917-4.613 0.997-4.867 1.714-5.436 0.221-0.181 0.435-0.402 0.475-0.502 0.047-0.114 0.094-0.991 0.127-2.316 0.027-1.178 0.067-2.343 0.094-2.591l0.040-0.449 0.435-0.328c0.549-0.422 0.763-0.803 0.763-1.393-0.007-0.696-0.462-1.459-1.292-2.142l-0.395-0.321 0.194-0.274c0.81-1.118 0.301-2.664-1.205-3.695l-0.455-0.315 0.167-0.174c0.743-0.797 0.864-3.173 0.241-4.827-0.375-0.984-1.232-2.055-2.283-2.845-0.515-0.388-1.935-1.245-2.062-1.245-0.027 0-0.027 0.047-0.007 0.107zM18.036 2.443c0.355 0.348 0.783 0.823 0.951 1.064 0.997 1.392 1.252 3.14 0.649 4.425-0.241 0.522-0.964 1.299-1.633 1.761-1.024 0.71-3.327 1.901-4.934 2.557-2.584 1.051-4.084 1.252-4.258 0.562-0.067-0.261 0.127-0.469 0.951-1.018 0.743-0.509 4.077-2.986 4.137-3.086 0.020-0.027-0.321 0.127-0.75 0.341-1.453 0.736-2.142 0.596-2.109-0.428 0.020-0.743 0.556-1.587 1.299-2.069 0.187-0.12 0.77-0.388 1.305-0.603 1.761-0.71 2.296-1.071 2.892-1.962 0.355-0.529 0.743-1.506 0.77-1.921 0.007-0.147 0.034-0.261 0.054-0.261s0.321 0.288 0.676 0.636zM19.864 10.049c0.489 0.274 0.997 0.743 1.218 1.111 0.388 0.663 0.187 1.325-0.649 2.169-0.91 0.924-2.464 1.808-4.171 2.37-1.573 0.515-3.079 0.756-5.235 0.83l-1.339 0.047 0.87 0.053c1.125 0.074 3.3 0.007 4.144-0.127 2.243-0.355 4.151-1.064 5.516-2.042 0.308-0.221 0.629-0.402 0.716-0.402 0.221 0 1.185 0.924 1.379 1.312 0.107 0.221 0.134 0.382 0.114 0.596-0.1 0.89-1.185 1.366-3.802 1.68-3.2 0.382-7.384 0.007-9.172-0.817-0.844-0.388-0.984-0.609-0.77-1.198 0.067-0.187 0.080-0.408 0.054-0.723-0.033-0.415-0.027-0.469 0.12-0.623 0.335-0.361 0.897-0.569 2.959-1.091 0.723-0.187 1.707-0.482 2.176-0.656 1.138-0.415 3.274-1.493 4.264-2.156 0.93-0.616 1.064-0.643 1.607-0.335zM10.974 18.243c1.406 0.408 2.651 0.529 4.967 0.482 1.741-0.034 2.812-0.141 4.358-0.415 0.315-0.053 0.589-0.1 0.623-0.1 0.074 0 0.053 2.571-0.027 3.247-0.087 0.716-0.281 1.272-0.489 1.406-0.214 0.141-1.285 0.288-2.718 0.368-2.939 0.161-5.958 0-6.895-0.375-0.509-0.207-0.562-0.475-0.569-2.959 0-1.654 0.013-1.881 0.1-1.848 0.053 0.020 0.348 0.107 0.649 0.194zM12.56 23.933c0.482 0.060 1.004 0.121 1.165 0.141l0.288 0.034-0.254 0.281c-0.328 0.355-0.83 1.064-1.011 1.426-0.207 0.415-0.274 0.442-0.582 0.274l-0.261-0.147-0.147-0.91c-0.080-0.495-0.167-0.971-0.187-1.051-0.060-0.174-0.12-0.174 0.991-0.047zM19.697 23.859c0 0.013-0.033 0.187-0.067 0.382-0.040 0.201-0.208 1.292-0.375 2.43-0.341 2.377-0.569 3.495-0.777 3.869-0.288 0.502-0.977 0.797-2.095 0.89-0.435 0.034-1.747-0.053-1.821-0.12-0.053-0.060 1.098-1.486 1.279-1.58 0.167-0.094 0.214-0.080 0.783 0.214 0.663 0.348 0.997 0.402 0.997 0.181s-0.174-0.435-0.602-0.73c-0.395-0.281-0.536-0.442-0.536-0.629 0-0.053 0.194-0.355 0.428-0.669s0.576-0.817 0.75-1.118l0.328-0.542 0.301 0.040c0.609 0.087 0.77 0.080 0.75-0.053-0.013-0.067-0.127-0.261-0.254-0.422-0.127-0.167-0.228-0.335-0.228-0.368 0-0.127 0.623-1.299 0.823-1.546 0.174-0.214 0.315-0.321 0.315-0.228zM15.513 24.395c0.335 0.221 1.593 1.312 1.674 1.446 0.034 0.060-1.259 2.082-1.513 2.37-0.027 0.034-0.167-0.033-0.308-0.141-0.141-0.114-0.663-0.475-1.165-0.803l-0.904-0.596 0.542-0.917c0.964-1.613 0.944-1.587 1.151-1.587 0.107 0 0.341 0.1 0.522 0.228zM18.050 24.636c-0.234 0.288-0.428 0.469-0.509 0.469-0.174 0-0.455-0.154-0.93-0.502l-0.395-0.288 0.79-0.047c0.428-0.020 0.844-0.047 0.917-0.060 0.536-0.087 0.536-0.080 0.127 0.428zM12.989 27.856c0.616 0.241 1.66 0.81 1.962 1.064 0.214 0.174 0.214 0.187 0.127 0.402-0.054 0.121-0.234 0.442-0.415 0.716-0.174 0.268-0.375 0.602-0.449 0.743-0.214 0.415-0.281 0.449-0.723 0.328-0.475-0.141-0.73-0.382-0.864-0.817-0.181-0.609-0.469-2.33-0.435-2.598 0.013-0.1 0.295-0.040 0.797 0.161z"></path>
</symbol>
<symbol id="icon-vector" viewBox="0 0 22 32">
<path d="M3.103 0.726c-0.45 0.45-0.703 1.060-0.703 1.697s0.253 1.247 0.703 1.697l11.88 11.88-11.88 11.88c-0.437 0.453-0.679 1.059-0.674 1.688s0.258 1.231 0.703 1.676c0.445 0.445 1.047 0.697 1.676 0.703s1.236-0.236 1.688-0.674l13.577-13.577c0.45-0.45 0.703-1.060 0.703-1.697s-0.253-1.247-0.703-1.697l-13.577-13.577c-0.45-0.45-1.060-0.703-1.697-0.703s-1.247 0.253-1.697 0.703z"></path>
</symbol>
<symbol id="icon-weight" viewBox="0 0 32 32">
<path d="M14.177 0.547c-3.974 0.589-7.247 2.796-8.451 5.685-0.384 0.913-0.488 1.473-0.488 2.573 0.007 0.812 0.037 1.114 0.162 1.553 0.259 0.863 0.443 1.301 0.827 1.919l0.355 0.575-0.399 0.489c-3.154 3.924-3.502 9.444-0.872 13.793 0.982 1.632 2.585 3.234 4.152 4.169l0.465 0.273 12.743-0.108 0.303-0.165c1.056-0.597 2.549-1.926 3.383-3.004 1.256-1.639 2.076-3.551 2.423-5.621 0.118-0.74 0.118-2.932-0.007-3.63-0.377-2.149-1.182-3.989-2.453-5.621-0.244-0.309-0.436-0.568-0.436-0.589 0-0.014 0.133-0.237 0.288-0.489 0.362-0.575 0.687-1.315 0.864-1.962 0.199-0.719 0.199-2.516 0-3.234-0.709-2.552-2.837-4.679-5.843-5.851-0.842-0.331-2.283-0.683-3.213-0.798-0.864-0.101-2.999-0.079-3.804 0.043zM18.676 1.718c3.945 0.769 6.833 3.184 7.365 6.16 0.118 0.668 0.044 1.804-0.155 2.437-0.199 0.618-0.569 1.344-1.005 1.962-0.177 0.252-0.325 0.539-0.325 0.633s0.155 0.338 0.377 0.582c1.847 2.048 2.822 4.614 2.822 7.389-0.007 3.155-1.219 5.922-3.553 8.093-0.399 0.374-0.968 0.841-1.271 1.042l-0.554 0.374-12.211 0.050-0.473-0.302c-1.714-1.114-3.258-2.954-4.115-4.909-1.079-2.472-1.189-5.34-0.31-7.913 0.465-1.337 1.086-2.429 2.031-3.579 0.384-0.46 0.561-0.733 0.561-0.863 0-0.108-0.192-0.46-0.443-0.827-0.886-1.287-1.248-2.717-1.034-4.068 0.222-1.366 0.842-2.487 1.987-3.601 1.492-1.445 3.575-2.401 6.020-2.76 1.012-0.151 3.25-0.093 4.285 0.101z"></path>
<path d="M14.51 2.983c-3.029 0.496-5.4 2.178-6.176 4.384-0.177 0.496-0.207 0.69-0.207 1.402s0.030 0.906 0.207 1.402c0.111 0.316 0.318 0.755 0.458 0.978 0.384 0.618 0.554 0.64 1.315 0.18 1.138-0.697 2.445-1.208 3.804-1.488 0.916-0.187 2.674-0.259 3.671-0.144 1.559 0.18 3.25 0.74 4.602 1.538 0.384 0.223 0.776 0.41 0.872 0.41 0.561 0 1.278-1.617 1.278-2.875 0-2.796-2.674-5.189-6.464-5.786-0.805-0.129-2.585-0.129-3.361 0zM18.166 4.133c1.271 0.273 2.438 0.791 3.317 1.473 1.182 0.913 1.817 2.185 1.714 3.414-0.037 0.489-0.222 1.15-0.332 1.222-0.029 0.014-0.443-0.158-0.916-0.388-0.983-0.474-2.098-0.855-3.228-1.1-0.687-0.144-0.975-0.165-2.512-0.158-1.514 0-1.832 0.022-2.489 0.158-1.138 0.244-2.024 0.546-3.117 1.064-1.101 0.525-1.042 0.532-1.241-0.115-0.258-0.841-0.096-1.955 0.406-2.796 0.266-0.446 0.997-1.186 1.529-1.553 1.012-0.697 1.899-1.013 3.804-1.358 0.391-0.072 2.563 0.029 3.066 0.137z"></path>
<path d="M16.962 13.405c-0.207 0.259-0.207 0.503 0.007 0.712 0.14 0.137 0.281 0.173 0.79 0.208 0.99 0.072 1.935 0.359 2.785 0.848 0.606 0.359 1.529 1.229 1.943 1.854 0.613 0.898 1.034 2.185 1.034 3.134 0 0.331 0.029 0.431 0.185 0.575 0.236 0.237 0.547 0.237 0.776 0 0.163-0.165 0.17-0.208 0.125-0.913-0.207-3.479-3.184-6.383-6.744-6.577l-0.739-0.043-0.163 0.201z"></path>
</symbol>
<symbol id="icon-close-line" viewBox="0 0 32 32">
<path d="M17.253 16l7.369-7.369c0.131-0.154 0.21-0.355 0.21-0.574 0-0.491-0.398-0.889-0.889-0.889-0.22 0-0.42 0.080-0.576 0.211l0.001-0.001-7.369 7.369-7.369-7.377c-0.164-0.18-0.399-0.292-0.661-0.292-0.493 0-0.893 0.4-0.893 0.893 0 0.261 0.112 0.496 0.291 0.659l0.001 0.001 7.379 7.369-7.379 7.369c-0.193 0.164-0.315 0.407-0.315 0.679 0 0.491 0.398 0.889 0.889 0.889 0.272 0 0.515-0.122 0.678-0.314l0.001-0.001 7.379-7.369 7.368 7.369c0.154 0.131 0.355 0.21 0.574 0.21 0.491 0 0.889-0.398 0.889-0.889 0-0.22-0.080-0.42-0.211-0.576l0.001 0.001-7.368-7.369z"></path>
</symbol>
<symbol id="icon-close-cross" viewBox="0 0 32 32">
<path d="M17.253 16l7.369-7.369c0.146-0.17 0.222-0.389 0.213-0.613s-0.101-0.436-0.26-0.594c-0.158-0.158-0.37-0.251-0.594-0.26s-0.442 0.067-0.612 0.213l-7.369 7.369-7.369-7.378c-0.167-0.167-0.394-0.261-0.631-0.261s-0.464 0.094-0.631 0.261c-0.167 0.167-0.261 0.394-0.261 0.631s0.094 0.464 0.261 0.631l7.378 7.369-7.378 7.369c-0.093 0.080-0.169 0.178-0.222 0.288s-0.083 0.23-0.088 0.353c-0.005 0.123 0.016 0.245 0.061 0.359s0.112 0.218 0.199 0.304c0.087 0.087 0.19 0.154 0.304 0.199s0.236 0.065 0.359 0.060c0.122-0.005 0.243-0.035 0.353-0.088s0.208-0.129 0.288-0.222l7.378-7.369 7.369 7.369c0.17 0.146 0.389 0.222 0.612 0.213s0.436-0.101 0.594-0.26c0.158-0.158 0.251-0.37 0.26-0.594s-0.067-0.442-0.213-0.612l-7.369-7.369z"></path>
</symbol>
<symbol id="icon-facebook" viewBox="0 0 32 32">
<path  style="fill: var(--color1, #F8D24E)" d="M16 32c8.837 0 16-7.163 16-16s-7.163-16-16-16c-8.837 0-16 7.163-16 16s7.163 16 16 16z"></path>
<path d="M20.446 15.982h-2.61v9.619h-3.955v-9.619h-1.881v-3.38h1.881v-2.187c0-1.564 0.739-4.014 3.99-4.014l2.929 0.012v3.281h-2.125c-0.349 0-0.839 0.175-0.839 0.921v1.989h2.955l-0.346 3.377z"></path>
</symbol>
<symbol id="icon-github" viewBox="0 0 32 32">
<path  style="fill: var(--color1, #F8D24E)" d="M32 16c0 8.837-7.163 16-16 16s-16-7.163-16-16c0-8.837 7.163-16 16-16s16 7.163 16 16z"></path>
<path d="M16 6.588c-5.169 0-9.412 4.242-9.412 9.412 0 4.411 3.095 8.419 7.206 9.412v-3.114c-0.407 0.089-0.782 0.092-1.197-0.030-0.556-0.164-1.008-0.535-1.344-1.1-0.214-0.361-0.593-0.752-0.988-0.723l-0.097-1.099c0.855-0.073 1.595 0.521 2.034 1.259 0.195 0.328 0.419 0.52 0.708 0.605 0.278 0.082 0.578 0.043 0.926-0.080 0.088-0.698 0.407-0.959 0.648-1.326v-0.001c-2.451-0.366-3.428-1.666-3.816-2.693-0.514-1.363-0.238-3.066 0.671-4.142 0.018-0.021 0.050-0.076 0.037-0.114-0.417-1.258 0.091-2.299 0.11-2.41 0.481 0.142 0.559-0.143 2.089 0.786l0.264 0.159c0.111 0.066 0.076 0.028 0.186 0.020 0.639-0.173 1.312-0.269 1.975-0.278 0.668 0.009 1.337 0.104 2.002 0.285l0.086 0.009c-0.007-0.001 0.023-0.005 0.075-0.036 1.911-1.157 1.842-0.779 2.355-0.946 0.019 0.111 0.519 1.169 0.107 2.411-0.056 0.171 1.657 1.739 0.708 4.256-0.388 1.027-1.365 2.328-3.816 2.693v0.001c0.314 0.479 0.692 0.734 0.69 1.722v3.887c4.111-0.993 7.206-5 7.206-9.412 0-5.169-4.242-9.412-9.412-9.412v0z"></path>
</symbol>
<symbol id="icon-telegram" viewBox="0 0 32 32">
<path style="fill: var(--color1, #F8D24E)" d="M32 16c0 8.837-7.163 16-16 16s-16-7.163-16-16c0-8.837 7.163-16 16-16s16 7.163 16 16z"></path>
<path d="M12.869 18.375l-0.318 4.169c0.454 0 0.651-0.182 0.887-0.401l2.13-1.9 4.415 3.017c0.81 0.421 1.38 0.199 1.598-0.695l2.898-12.672 0.001-0.001c0.257-1.117-0.433-1.554-1.222-1.28l-17.032 6.086c-1.162 0.421-1.145 1.026-0.198 1.3l4.354 1.264 10.115-5.907c0.476-0.294 0.909-0.131 0.553 0.163l-8.182 6.857z"></path>
</symbol>
<symbol id="icon-logo" viewBox="0 0 30 32">
<path d="M15.226 17.082c1.415-3.784-1.515-5.855-3.457-7.217-0.371-0.278-0.742-0.538-1.044-0.776-0.525-0.438-0.921-1.015-1.133-1.674l-0.007-0.026c-0.104-0.319-0.163-0.686-0.163-1.067 0-0.345 0.049-0.679 0.141-0.995l-0.006 0.025c0.009-0.031 0.014-0.067 0.014-0.105 0-0.115-0.050-0.219-0.129-0.29l-0-0c-0.071-0.065-0.167-0.105-0.272-0.105-0.049 0-0.096 0.009-0.14 0.025l0.003-0.001c-0.69 0.273-1.285 0.63-1.811 1.067l0.011-0.009c-0.512 0.391-0.925 0.885-1.215 1.452l-0.011 0.024c-0.277 0.541-0.44 1.18-0.442 1.857v0.001c-0.367 0.287-0.684 0.613-0.952 0.978l-0.010 0.014c-0.445 0.593-0.713 1.341-0.713 2.151 0 0.061 0.002 0.121 0.004 0.181l-0-0.008c-0.58 0.526-1.023 1.192-1.276 1.945l-0.009 0.032c-0.143 0.422-0.226 0.908-0.226 1.414 0 0.33 0.035 0.652 0.102 0.962l-0.005-0.030c-0.236 0.141-0.42 0.354-0.521 0.608-0.056 0.135-0.088 0.292-0.088 0.457 0 0.12 0.017 0.237 0.050 0.347l-0.002-0.009c0.075 0.262 0.235 0.493 0.456 0.657s0.49 0.252 0.767 0.25h0.026v2.151c0 0.219 0.089 0.428 0.245 0.583s0.369 0.241 0.591 0.241h0.65l1.058 9.040c0.022 0.201 0.118 0.387 0.271 0.522s0.351 0.21 0.556 0.21h4.404c0.206-0 0.404-0.075 0.557-0.21s0.251-0.32 0.275-0.522l1.058-9.040h0.65c0.222 0 0.434-0.087 0.591-0.241 0.151-0.148 0.244-0.354 0.245-0.582v-2.152h0.026c0.001 0 0.001 0 0.002 0 0.348 0 0.663-0.139 0.894-0.365l-0 0c0.237-0.234 0.371-0.551 0.371-0.883 0-0.004 0-0.009 0-0.014 0-0.343-0.142-0.654-0.371-0.875l-0-0-0.011 0.003zM5.695 10.216c0.535 1.98 2.599 2.759 4.482 3.455 0.060 0.037 0.134 0.059 0.212 0.059 0.109 0 0.207-0.042 0.281-0.111l-0 0c0.076-0.073 0.124-0.175 0.124-0.289 0-0.010-0-0.019-0.001-0.028l0 0.001c-0.009-0.123-0.072-0.229-0.166-0.295l-0.001-0.001c-0.046-0.033-0.101-0.057-0.16-0.068l-0.003-0c-2.027-0.758-3.939-1.464-4.084-3.488-0.004-0.061-0.006-0.131-0.006-0.203 0-0.514 0.116-1.001 0.324-1.436l-0.009 0.020c0.246-0.518 0.601-0.949 1.038-1.277l0.009-0.006c0.283-0.231 0.586-0.438 0.906-0.615-0.010 0.114-0.015 0.247-0.015 0.381s0.006 0.267 0.017 0.398l-0.001-0.017c0.047 0.615 0.216 1.181 0.484 1.686l-0.011-0.023c0.281 0.531 0.648 0.98 1.087 1.343l0.007 0.006c0.308 0.26 0.691 0.527 1.114 0.812 0.977 0.692 2.087 1.465 2.792 2.511 0.441 0.619 0.704 1.39 0.704 2.223 0 0.538-0.11 1.051-0.309 1.517l0.010-0.025h-1.641c-3.382 0-7.27-0.922-8.038-3.506-0.072-0.242-0.113-0.519-0.113-0.807 0-0.292 0.043-0.573 0.122-0.839l-0.005 0.021c0.164-0.551 0.468-1.018 0.87-1.377l0.003-0.003-0.019-0.018zM8.74 22.693l1.24 1.222-1.241 1.222-1.24-1.23 1.24-1.215zM11.584 25.903l-1.025 1.010-1.24-1.222 1.241-1.219 1.076 1.057-0.052 0.374zM8.74 28.706l-1.241-1.222 1.241-1.222 1.24 1.222-1.241 1.222zM8.172 25.698l-1.241 1.222-1.032-1.018-0.044-0.366 1.077-1.057 1.24 1.219zM6.36 27.484l-0.249 0.245-0.063-0.556 0.312 0.311zM6.23 28.735l0.702-0.692 1.363 1.354c0.007 0.028 0.016 0.054 0.026 0.081h-2.005l-0.086-0.743zM10.552 28.044l0.702 0.692-0.086 0.732h-2.060l1.444-1.424zM11.368 27.729l-0.249-0.245 0.316-0.311-0.067 0.556zM11.74 24.53l-0.62-0.622 0.787-0.776-0.167 1.398zM10.548 23.352l-1.177-1.156h2.354l-1.177 1.157zM6.928 23.352l-1.177-1.156h2.354l-1.177 1.157zM10.938 31.169h-4.4c-0.013-0.002-0.024-0.012-0.026-0.025l-0-0-0.104-0.879h4.664l-0.1 0.879c-0.002 0.015-0.014 0.026-0.029 0.026-0 0-0 0-0 0v0h-0.003zM14.343 18.418h-1.292c-0.011-0.001-0.025-0.002-0.038-0.002-0.105 0-0.201 0.039-0.273 0.104l0-0c-0.081 0.073-0.132 0.178-0.133 0.295v0c0 0 0 0 0 0 0 0.117 0.051 0.223 0.133 0.295l0 0c0.071 0.064 0.166 0.103 0.271 0.103 0.014 0 0.028-0.001 0.042-0.002l-0.002 0h0.46v2.152c-0.001 0.008-0.005 0.014-0.010 0.019l-0 0c-0.005 0.004-0.012 0.007-0.019 0.007-0 0-0.001 0-0.001 0h-9.494c-0 0-0 0-0.001 0-0.007 0-0.014-0.003-0.019-0.007l0 0c-0.005-0.005-0.009-0.011-0.010-0.019v-2.152h7.355c0.104-0.010 0.195-0.058 0.261-0.129l0-0c0.065-0.070 0.105-0.165 0.105-0.268s-0.040-0.198-0.105-0.269l0 0c-0.066-0.071-0.157-0.119-0.259-0.128l-0.002-0h-8.168c-0.012 0.001-0.026 0.002-0.041 0.002-0.12 0-0.229-0.045-0.312-0.119l0 0c-0.092-0.083-0.149-0.202-0.15-0.335v-0c0-0 0-0 0-0.001 0-0.133 0.058-0.252 0.149-0.334l0-0c0.082-0.074 0.191-0.119 0.31-0.119 0.015 0 0.029 0.001 0.044 0.002l-0.002-0h0.843c0.104-0.010 0.195-0.058 0.261-0.129l0-0c0.065-0.070 0.105-0.165 0.105-0.268s-0.040-0.198-0.105-0.269l0 0c-0.066-0.071-0.157-0.119-0.259-0.129l-0.002-0h-0.742c-0.044-0.218-0.069-0.469-0.069-0.726 0-0.339 0.044-0.667 0.125-0.981l-0.006 0.027c0.15-0.579 0.412-1.083 0.764-1.511l-0.005 0.007c0.26 0.798 0.928 1.889 2.599 2.756 1.57 0.808 3.65 1.222 6.178 1.222h1.485c0.012-0.001 0.027-0.002 0.041-0.002 0.12 0 0.229 0.045 0.311 0.119l-0-0c0.092 0.083 0.149 0.202 0.15 0.335v0c0 0 0 0.001 0 0.001 0 0.133-0.058 0.252-0.149 0.334l-0 0c-0.082 0.074-0.191 0.119-0.31 0.119-0.015 0-0.029-0.001-0.044-0.002l0.002 0h0.026z"></path>
<path d="M16.964 29.152l-0.293 0.448 0.006 0.004 0.287-0.453zM20.113 29.304l0.535-0.012-0.014-0.62-0.611 0.104 0.090 0.528zM20.15 30.951l0.136 0.518 0.409-0.108-0.010-0.422-0.535 0.012zM16.017 31.030l0.121-0.522-0.003-0.001-0.117 0.523zM13.978 30.119l0.347-0.409h-0.001l-0.346 0.409zM13.24 28.446l0.536 0.003v-0.003h-0.536zM13.496 27.274l-0.48-0.236v0.001l0.48 0.235zM15.138 25.872l0.19 0.501 0.002-0.001-0.192-0.5zM20.401 25.736l0.534 0.041 0.035-0.452-0.44-0.109-0.129 0.52zM20.27 27.415l-0.099 0.526 0.587 0.111 0.046-0.596-0.534-0.042zM18.842 26.728c-0.804 0-1.48 0.086-1.973 0.303-0.253 0.111-0.483 0.268-0.651 0.489-0.159 0.209-0.255 0.473-0.255 0.76 0 0.005 0 0.010 0 0.015v-0.001h1.071c-0-0.004-0-0.008-0-0.013 0-0.043 0.014-0.083 0.038-0.115l-0 0c0.028-0.037 0.091-0.095 0.228-0.156 0.288-0.127 0.783-0.212 1.542-0.212v-1.072zM15.963 28.294c0 0.551 0.247 1.006 0.709 1.307l0.585-0.897c-0.16-0.103-0.223-0.221-0.223-0.409h-1.071zM16.677 29.604c0.438 0.277 1.015 0.381 1.663 0.381v-1.071c-0.559 0-0.899-0.095-1.089-0.215l-0.574 0.905zM18.34 29.985c0.635 0 1.256-0.051 1.863-0.154l-0.179-1.056c-0.5 0.088-1.077 0.139-1.665 0.139-0.007 0-0.013 0-0.020-0h0.001v1.071zM19.578 29.315l0.036 1.648 1.071-0.024-0.037-1.647-1.071 0.024zM20.013 30.433c-0.612 0.161-1.288 0.244-2.029 0.244v1.071c0.821 0 1.589-0.092 2.302-0.279l-0.273-1.036zM17.984 30.677c-0.757 0-1.369-0.060-1.846-0.169l-0.241 1.044c0.582 0.134 1.281 0.197 2.087 0.197v-1.071zM16.134 30.507c-0.511-0.114-0.881-0.236-1.127-0.356l-0.47 0.962c0.353 0.172 0.814 0.316 1.363 0.439l0.234-1.046zM15.008 30.151c-0.26-0.126-0.485-0.273-0.688-0.444l0.005 0.004-0.693 0.817c0.263 0.222 0.561 0.417 0.881 0.574l0.026 0.011 0.47-0.962zM14.323 29.71c-0.364-0.308-0.55-0.709-0.547-1.262l-1.071-0.005c-0.004 0.842 0.301 1.556 0.927 2.085l0.692-0.818zM13.776 28.446c0-0.36 0.070-0.669 0.202-0.936l-0.962-0.471c-0.211 0.43-0.311 0.902-0.311 1.407h1.071zM13.977 27.51c0.243-0.495 0.673-0.88 1.351-1.137l-0.38-1.002c-0.884 0.336-1.549 0.886-1.933 1.666l0.961 0.473zM15.331 26.372c0.712-0.273 1.507-0.414 2.392-0.414v-1.071c-0.999 0-1.926 0.159-2.776 0.485l0.384 1zM17.723 25.958c0.901 0 1.751 0.1 2.549 0.298l0.258-1.040c-0.89-0.221-1.826-0.33-2.807-0.33v1.071zM19.867 25.695l-0.13 1.679 1.068 0.084 0.131-1.679-1.068-0.083zM20.37 26.889c-0.557-0.105-1.068-0.161-1.528-0.161v1.071c0.377 0 0.818 0.046 1.328 0.142l0.199-1.053zM25.596 27.744l-0.003 0.536 0.544 0.003-0.005-0.544-0.536 0.005zM25.366 27.049l-0.364 0.393 0.005 0.004 0.359-0.397zM24.032 27.102l0.371 0.386 0.004-0.004-0.375-0.383zM23.708 27.734l-0.529-0.087-0.101 0.619 0.627 0.003 0.003-0.536zM27.646 30.59l0.324 0.427 0.192-0.146 0.018-0.241-0.534-0.039zM26.49 31.019l-0.115-0.523-0.003 0 0.118 0.523zM22.473 30.873l-0.182 0.504 0.004 0.001 0.178-0.505zM21.558 30.386l-0.332 0.42 0.003 0.002 0.003 0.002 0.326-0.425zM20.946 29.617l-0.48 0.237 0.001 0.002 0.479-0.24zM21.573 26.369v0zM26.469 25.788l0.214-0.49-0.005-0.002-0.209 0.493zM27.699 26.918l-0.482 0.234 0.001 0.003 0.48-0.237zM27.908 27.855l0.534 0.038 0.001-0.019v-0.020h-0.536zM27.845 28.718l-0.002 0.536 0.501 0.002 0.036-0.499-0.534-0.039zM23.603 28.697l0.003-0.536-0.699-0.003 0.178 0.676 0.518-0.137zM24.21 29.445l-0.263 0.466 0.002 0.001 0.261-0.468zM27.463 29.262v-0.536h-0.107l-0.098 0.041 0.206 0.495zM27.745 29.262l0.534 0.039 0.043-0.575h-0.577v0.536zM26.132 27.739c-0.004-0.387-0.094-0.803-0.406-1.087l-0.72 0.794c-0.006-0.005 0.006 0.001 0.021 0.047 0.016 0.049 0.032 0.131 0.033 0.257l1.071-0.011zM25.73 26.657c-0.281-0.261-0.65-0.347-1.013-0.347v1.071c0.208 0 0.272 0.050 0.284 0.061l0.729-0.785zM24.717 26.309c-0.399 0-0.77 0.125-1.060 0.409l0.75 0.766c0.059-0.058 0.144-0.103 0.31-0.103v-1.072zM23.661 26.715c-0.251 0.242-0.425 0.563-0.481 0.923l-0.001 0.009 1.057 0.174c0.025-0.149 0.081-0.252 0.166-0.334l-0.742-0.773zM23.705 28.27l1.889 0.010 0.006-1.071-1.889-0.011-0.006 1.071zM27.323 30.163c-0.118 0.089-0.404 0.213-0.948 0.333l0.23 1.046c0.565-0.125 1.050-0.287 1.365-0.525l-0.647-0.854zM26.372 30.497c-0.449 0.109-0.965 0.173-1.496 0.175h-0.002v1.071c0.566 0 1.145-0.068 1.735-0.202l-0.236-1.045zM24.874 30.672c-0.505 0-0.921-0.024-1.252-0.068l-0.143 1.062c0.394 0.053 0.861 0.078 1.395 0.078v-1.071zM23.622 30.603c-0.364-0.050-0.692-0.133-1.004-0.247l0.034 0.011-0.357 1.010c0.389 0.138 0.784 0.233 1.184 0.288l0.143-1.062zM22.656 30.369c-0.314-0.113-0.568-0.251-0.772-0.408l-0.652 0.85c0.305 0.234 0.661 0.42 1.058 0.565l0.365-1.007zM21.89 29.966c-0.194-0.158-0.351-0.354-0.461-0.578l-0.004-0.010-0.958 0.479c0.186 0.377 0.442 0.694 0.753 0.945l0.005 0.004 0.666-0.84zM21.426 29.38c-0.113-0.228-0.18-0.521-0.18-0.897h-1.071c0 0.502 0.090 0.965 0.29 1.372l0.96-0.475zM21.246 28.482c0-0.377 0.068-0.71 0.196-1.006l-0.983-0.426c-0.192 0.443-0.285 0.923-0.285 1.432h1.071zM21.442 27.477c0.135-0.311 0.3-0.542 0.487-0.707l-0.713-0.8c-0.322 0.287-0.572 0.653-0.757 1.082l0.983 0.426zM21.93 26.769c0.576-0.513 1.454-0.811 2.719-0.811v-1.071c-1.419 0-2.591 0.333-3.432 1.083l0.713 0.799zM24.649 25.958c0.568 0 1.104 0.108 1.611 0.323l0.418-0.986c-0.593-0.258-1.284-0.409-2.010-0.409-0.007 0-0.014 0-0.021 0h0.001v1.071zM26.255 26.279c0.474 0.207 0.78 0.5 0.961 0.873l0.963-0.468c-0.307-0.632-0.82-1.092-1.497-1.387l-0.428 0.982zM27.218 27.156c0.1 0.202 0.154 0.432 0.154 0.699h1.071c0-0.417-0.086-0.811-0.265-1.174l-0.96 0.474zM27.374 27.815l-0.063 0.863 1.068 0.078 0.063-0.863-1.068-0.077zM27.848 28.182l-4.242-0.021-0.005 1.071 4.242 0.021 0.005-1.071zM23.085 28.833c0.126 0.475 0.432 0.834 0.862 1.078l0.527-0.933c-0.212-0.12-0.31-0.258-0.352-0.418l-1.036 0.274zM23.948 29.912c0.434 0.243 0.978 0.34 1.585 0.34v-1.071c-0.509 0-0.848-0.084-1.062-0.204l-0.523 0.935zM25.533 30.252c0.651 0 1.367-0.176 2.136-0.496l-0.412-0.989c-0.688 0.287-1.26 0.414-1.724 0.414v1.071zM27.463 29.797h0.283v-1.071h-0.282v1.071zM27.212 29.221l-0.1 1.329 1.068 0.080 0.099-1.329-1.068-0.080z"></path>
</symbol>
<symbol id="icon-burger" viewBox="0 0 32 32">
<path d="M26.733 14h-21.466c-0.7 0-1.267 0.425-1.267 0.95v0.1c0 0.525 0.567 0.95 1.267 0.95h21.466c0.7 0 1.267-0.425 1.267-0.95v-0.1c0-0.525-0.567-0.95-1.267-0.95zM26.733 20h-21.466c-0.7 0-1.267 0.425-1.267 0.95v0.1c0 0.525 0.567 0.95 1.267 0.95h21.466c0.7 0 1.267-0.425 1.267-0.95v-0.1c0-0.525-0.567-0.95-1.267-0.95zM26.733 8h-21.466c-0.7 0-1.267 0.425-1.267 0.95v0.1c0 0.525 0.567 0.95 1.267 0.95h21.466c0.7 0 1.267-0.425 1.267-0.95v-0.1c0-0.525-0.567-0.95-1.267-0.95z"></path>
</symbol>
</defs>
</svg>
