<svg aria-hidden="true" style="position: absolute; width: 0; height: 0; overflow: hidden;" version="1.1"
    xmlns="http://www.w3.org/2000/svg"
    xmlns:xlink="http://www.w3.org/1999/xlink">
    <defs>
        <symbol id="icon-logo" viewBox="0 0 34 32">
            <path fill="#f8d24e" style="fill: var(--color1, #f8d24e)" d="M17.184 14.109c1.613-4.366-1.727-6.756-3.942-8.327-0.423-0.321-0.847-0.621-1.19-0.895-0.613-0.516-1.064-1.196-1.301-1.96s-0.248-1.58-0.033-2.351c0.022-0.081 0.022-0.166-0.002-0.246s-0.068-0.153-0.13-0.209c-0.062-0.057-0.138-0.095-0.22-0.112s-0.167-0.010-0.246 0.018c-0.746 0.294-1.439 0.706-2.054 1.22-0.59 0.454-1.069 1.037-1.398 1.703s-0.502 1.4-0.503 2.143c-0.418 0.328-0.787 0.713-1.097 1.144-0.569 0.775-0.855 1.722-0.809 2.681-0.678 0.621-1.183 1.407-1.466 2.281s-0.333 1.806-0.147 2.706c-0.27 0.163-0.479 0.409-0.594 0.701s-0.132 0.615-0.047 0.917 0.268 0.569 0.52 0.758c0.252 0.189 0.559 0.29 0.874 0.288h0.030v2.483c0 0.252 0.1 0.494 0.279 0.672s0.421 0.278 0.674 0.278h0.741l1.207 10.43c0.025 0.232 0.135 0.447 0.31 0.603s0.4 0.242 0.634 0.242h5.022c0.234-0 0.46-0.087 0.635-0.242s0.286-0.37 0.313-0.602l1.207-10.43h0.741c0.253 0 0.495-0.1 0.674-0.278s0.279-0.42 0.279-0.672v-2.483h0.030c0.383 0 0.75-0.152 1.021-0.422s0.423-0.636 0.423-1.018c0.002-0.191-0.035-0.38-0.107-0.556s-0.18-0.336-0.316-0.47l-0.013 0.004zM6.315 6.188c0.61 2.284 2.964 3.184 5.111 3.986 0.058 0.035 0.123 0.058 0.19 0.065s0.136 0 0.2-0.021c0.064-0.022 0.123-0.057 0.172-0.104s0.087-0.104 0.111-0.167 0.034-0.131 0.030-0.198c-0.005-0.067-0.024-0.133-0.058-0.192s-0.079-0.11-0.134-0.149c-0.055-0.039-0.118-0.066-0.185-0.078-2.312-0.874-4.492-1.689-4.657-4.024-0.039-0.642 0.082-1.283 0.352-1.867s0.68-1.093 1.194-1.481c0.322-0.267 0.668-0.505 1.033-0.709-0.024 0.292-0.024 0.586 0 0.878 0.049 0.669 0.232 1.322 0.539 1.919s0.731 1.126 1.247 1.557c0.351 0.3 0.788 0.608 1.27 0.937 1.114 0.798 2.38 1.689 3.184 2.897 0.429 0.619 0.696 1.336 0.777 2.084s-0.028 1.505-0.315 2.201h-1.871c-3.857 0-8.29-1.064-9.167-4.045-0.174-0.613-0.172-1.263 0.004-1.875s0.521-1.164 0.995-1.591l-0.021-0.021zM9.787 20.582l1.414 1.41-1.414 1.41-1.414-1.419 1.414-1.402zM13.030 24.286l-1.169 1.165-1.414-1.41 1.414-1.406 1.228 1.22-0.059 0.431zM9.787 27.52l-1.414-1.41 1.414-1.41 1.414 1.41-1.414 1.41zM9.139 24.049l-1.414 1.41-1.177-1.174-0.051-0.422 1.228-1.22 1.414 1.406zM7.073 26.11l-0.284 0.283-0.072-0.642 0.356 0.359zM6.925 27.554l0.8-0.798 1.554 1.562c0.008 0.032 0.018 0.063 0.030 0.093h-2.286l-0.097-0.857zM11.853 26.756l0.8 0.798-0.097 0.845h-2.35l1.647-1.643zM12.785 26.393l-0.284-0.283 0.36-0.359-0.076 0.642zM13.208 22.702l-0.707-0.718 0.898-0.895-0.191 1.613zM11.849 21.342l-1.342-1.334h2.684l-1.342 1.334zM7.721 21.342l-1.342-1.334h2.684l-1.342 1.334zM12.293 30.362h-5.017c-0.008-0.001-0.015-0.004-0.020-0.010s-0.009-0.012-0.010-0.020l-0.119-1.013h5.318l-0.114 1.013c-0.001 0.008-0.005 0.016-0.011 0.021s-0.014 0.008-0.023 0.008h-0.004zM16.176 15.651h-1.474c-0.064-0.006-0.129 0.001-0.19 0.021s-0.117 0.053-0.165 0.096c-0.048 0.043-0.086 0.096-0.112 0.154s-0.040 0.122-0.040 0.186c0 0.064 0.013 0.128 0.040 0.186s0.064 0.111 0.112 0.154c0.048 0.043 0.104 0.076 0.165 0.096s0.126 0.027 0.19 0.021h0.525v2.483c-0.001 0.008-0.005 0.016-0.011 0.021s-0.014 0.008-0.023 0.008h-10.827c-0.008 0-0.016-0.003-0.023-0.008s-0.010-0.013-0.011-0.021v-2.483h8.388c0.114-0.011 0.22-0.064 0.297-0.149s0.12-0.195 0.12-0.309-0.043-0.225-0.12-0.309c-0.077-0.085-0.183-0.138-0.297-0.149h-9.315c-0.073 0.006-0.146-0.002-0.215-0.025s-0.133-0.061-0.186-0.11c-0.054-0.049-0.097-0.109-0.126-0.175s-0.045-0.139-0.045-0.211c0-0.073 0.015-0.145 0.045-0.211s0.072-0.126 0.126-0.175c0.054-0.049 0.117-0.086 0.186-0.11s0.142-0.032 0.215-0.025h0.961c0.114-0.011 0.22-0.064 0.297-0.149s0.12-0.195 0.12-0.309c0-0.114-0.043-0.225-0.12-0.309s-0.183-0.138-0.297-0.149h-0.847c-0.121-0.643-0.102-1.304 0.058-1.938s0.455-1.226 0.865-1.736c0.296 0.921 1.059 2.179 2.964 3.18 1.791 0.933 4.162 1.41 7.046 1.41h1.694c0.073-0.006 0.146 0.002 0.215 0.025s0.133 0.061 0.186 0.11c0.054 0.049 0.097 0.109 0.126 0.175s0.045 0.138 0.045 0.211c0 0.073-0.015 0.145-0.045 0.211s-0.072 0.126-0.126 0.175c-0.054 0.049-0.117 0.086-0.186 0.11s-0.142 0.032-0.215 0.025h0.030z"></path>
            <path fill="#f8d24e" style="fill: var(--color1, #f8d24e)" d="M19.859 28.392l-0.342 0.525 0.007 0.004 0.335-0.529zM23.541 28.569l0.626-0.014-0.016-0.725-0.715 0.121 0.105 0.617zM23.584 30.495l0.159 0.606 0.478-0.126-0.011-0.494-0.626 0.014zM18.752 30.587l0.141-0.61-0.004-0.001-0.137 0.611zM16.367 29.523l0.405-0.478-0.001-0.001-0.404 0.478zM15.505 27.566l0.626 0.003v-0.003h-0.626zM15.804 26.196l-0.562-0.276-0 0.001 0.562 0.276zM17.725 24.557l0.222 0.586 0.002-0.001-0.224-0.585zM23.877 24.398l0.624 0.049 0.041-0.529-0.515-0.128-0.151 0.608zM23.724 26.361l-0.117 0.615 0.687 0.13 0.054-0.697-0.624-0.049zM22.054 25.557c-0.94 0-1.73 0.1-2.307 0.354-0.296 0.13-0.565 0.313-0.761 0.571-0.202 0.267-0.298 0.577-0.298 0.905h1.252c0-0.073 0.018-0.114 0.044-0.149 0.032-0.043 0.106-0.111 0.267-0.182 0.336-0.148 0.916-0.248 1.803-0.248v-1.252zM18.688 27.389c0 0.644 0.289 1.176 0.829 1.528l0.684-1.049c-0.186-0.121-0.26-0.258-0.26-0.478h-1.252zM19.524 28.921c0.512 0.324 1.186 0.446 1.944 0.446v-1.253c-0.654 0-1.051-0.111-1.273-0.251l-0.67 1.058zM21.467 29.366c0.743 0 1.469-0.060 2.178-0.18l-0.21-1.235c-0.637 0.108-1.293 0.162-1.968 0.162v1.253zM22.915 28.583l0.043 1.926 1.252-0.028-0.043-1.926-1.252 0.028zM23.424 29.89c-0.716 0.188-1.506 0.285-2.373 0.285v1.252c0.96 0 1.858-0.107 2.691-0.326l-0.319-1.211zM21.052 30.175c-0.885 0-1.601-0.070-2.159-0.198l-0.281 1.221c0.681 0.157 1.498 0.23 2.44 0.23v-1.252zM18.889 29.976c-0.598-0.134-1.029-0.276-1.317-0.416l-0.55 1.125c0.413 0.202 0.952 0.37 1.594 0.513l0.273-1.222zM17.571 29.56c-0.309-0.151-0.574-0.323-0.799-0.514l-0.81 0.955c0.313 0.265 0.667 0.493 1.060 0.685l0.55-1.125zM16.771 29.045c-0.426-0.36-0.644-0.83-0.64-1.476l-1.252-0.006c-0.005 0.985 0.352 1.82 1.084 2.438l0.809-0.957zM16.131 27.566c0-0.421 0.083-0.782 0.236-1.094l-1.125-0.551c-0.246 0.503-0.364 1.055-0.364 1.645h1.252zM16.366 26.472c0.285-0.579 0.788-1.029 1.581-1.33l-0.444-1.171c-1.034 0.392-1.811 1.035-2.26 1.948l1.124 0.553zM17.949 25.142c0.833-0.32 1.763-0.484 2.797-0.484v-1.253c-1.168 0-2.252 0.186-3.246 0.568l0.449 1.169zM20.746 24.657c1.054 0 2.047 0.117 2.981 0.348l0.301-1.216c-1.040-0.258-2.134-0.385-3.282-0.385v1.253zM23.253 24.349l-0.153 1.963 1.249 0.097 0.153-1.963-1.249-0.097zM23.841 25.746c-0.652-0.124-1.248-0.188-1.786-0.188v1.252c0.441 0 0.957 0.053 1.553 0.166l0.233-1.231zM29.951 26.746l-0.003 0.626 0.636 0.004-0.007-0.636-0.626 0.007zM29.682 25.933l-0.426 0.459 0.005 0.005 0.421-0.464zM28.123 25.994l0.434 0.452 0.005-0.004-0.438-0.447zM27.743 26.734l-0.618-0.102-0.119 0.724 0.733 0.004 0.003-0.626zM32.349 30.073l0.378 0.499 0.225-0.171 0.021-0.282-0.624-0.047zM30.997 30.575l-0.135-0.612-0.004 0.001 0.138 0.611zM26.3 30.404l-0.214 0.589 0.005 0.002 0.208-0.59zM25.23 29.835l-0.389 0.491 0.008 0.006 0.381-0.497zM24.514 28.936l-0.561 0.278 0.001 0.003 0.56-0.28zM25.248 25.138l0.416 0.468 0-0-0.417-0.467zM30.973 24.459l0.25-0.574-0.006-0.003-0.245 0.576zM32.41 25.78l-0.563 0.274 0.002 0.003 0.562-0.277zM32.654 26.875l0.625 0.045 0.002-0.023v-0.023h-0.626zM32.581 27.884l-0.003 0.626 0.585 0.003 0.042-0.584-0.625-0.045zM27.621 27.859l0.003-0.626-0.817-0.004 0.208 0.79 0.606-0.16zM28.331 28.734l-0.308 0.545 0.003 0.001 0.306-0.547zM32.134 28.52v-0.626h-0.125l-0.116 0.048 0.241 0.578zM32.465 28.52l0.624 0.047 0.050-0.673h-0.675v0.626zM30.577 26.74c-0.005-0.453-0.109-0.939-0.475-1.271l-0.841 0.928c-0.007-0.007 0.007 0.001 0.025 0.055 0.019 0.057 0.037 0.153 0.039 0.301l1.252-0.013zM30.108 25.474c-0.329-0.305-0.76-0.406-1.184-0.406v1.252c0.244 0 0.318 0.058 0.332 0.071l0.852-0.918zM28.924 25.068c-0.466 0-0.9 0.146-1.239 0.479l0.877 0.895c0.068-0.067 0.169-0.121 0.363-0.121v-1.252zM27.689 25.542c-0.308 0.296-0.494 0.669-0.563 1.090l1.236 0.203c0.029-0.174 0.096-0.294 0.195-0.39l-0.867-0.904zM27.74 27.36l2.208 0.012 0.007-1.253-2.208-0.012-0.007 1.253zM31.97 29.574c-0.137 0.104-0.472 0.249-1.108 0.389l0.269 1.223c0.661-0.145 1.227-0.335 1.595-0.614l-0.757-0.998zM30.859 29.964c-0.607 0.137-1.19 0.205-1.752 0.205v1.252c0.662 0 1.338-0.079 2.028-0.236l-0.277-1.222zM29.107 30.169c-0.59 0-1.076-0.028-1.464-0.080l-0.167 1.241c0.461 0.062 1.006 0.091 1.631 0.091v-1.252zM27.643 30.089c-0.38-0.051-0.758-0.143-1.135-0.276l-0.417 1.181c0.455 0.161 0.917 0.273 1.385 0.336l0.167-1.241zM26.514 29.815c-0.366-0.133-0.664-0.294-0.903-0.477l-0.762 0.994c0.357 0.274 0.772 0.492 1.238 0.661l0.427-1.177zM25.619 29.344c-0.215-0.17-0.398-0.395-0.544-0.688l-1.12 0.56c0.221 0.441 0.515 0.815 0.887 1.11l0.777-0.982zM25.076 28.658c-0.132-0.266-0.21-0.609-0.21-1.050h-1.253c0 0.587 0.105 1.129 0.34 1.605l1.123-0.555zM24.865 27.609c0-0.441 0.079-0.83 0.23-1.176l-1.149-0.499c-0.225 0.518-0.333 1.079-0.333 1.674h1.253zM25.095 26.433c0.158-0.364 0.351-0.633 0.57-0.827l-0.833-0.935c-0.377 0.335-0.669 0.764-0.886 1.264l1.149 0.499zM25.665 25.605c0.673-0.6 1.7-0.948 3.179-0.948v-1.253c-1.66 0-3.031 0.39-4.013 1.266l0.834 0.935zM28.844 24.657c0.664 0 1.29 0.126 1.884 0.378l0.489-1.153c-0.752-0.319-1.544-0.478-2.373-0.478v1.253zM30.722 25.033c0.554 0.242 0.912 0.585 1.124 1.021l1.126-0.548c-0.359-0.738-0.959-1.276-1.75-1.621l-0.501 1.148zM31.848 26.057c0.117 0.237 0.18 0.506 0.18 0.817h1.252c0-0.487-0.1-0.948-0.309-1.372l-1.123 0.555zM32.030 26.829l-0.073 1.009 1.249 0.091 0.073-1.009-1.249-0.091zM32.584 27.258l-4.96-0.024-0.006 1.252 4.96 0.024 0.006-1.252zM27.015 28.019c0.146 0.555 0.505 0.976 1.007 1.26l0.616-1.090c-0.248-0.14-0.363-0.302-0.412-0.489l-1.211 0.319zM28.025 29.281c0.508 0.284 1.143 0.398 1.853 0.398v-1.252c-0.595 0-0.991-0.098-1.242-0.238l-0.611 1.093zM29.878 29.678c0.762 0 1.598-0.206 2.497-0.58l-0.481-1.156c-0.805 0.335-1.473 0.484-2.016 0.484v1.252zM32.134 29.146h0.33v-1.252h-0.33v1.252zM31.84 28.473l-0.116 1.553 1.249 0.093 0.116-1.553-1.249-0.093z"></path>
        </symbol>
        <symbol id="icon-burger" viewBox="0 0 32 32">
            <path fill="#fff" style="fill: var(--color1, #fff)" d="M26.733 14h-21.466c-0.7 0-1.267 0.425-1.267 0.95v0.1c0 0.525 0.567 0.95 1.267 0.95h21.466c0.7 0 1.267-0.425 1.267-0.95v-0.1c0-0.525-0.567-0.95-1.267-0.95zM26.733 20h-21.466c-0.7 0-1.267 0.425-1.267 0.95v0.1c0 0.525 0.567 0.95 1.267 0.95h21.466c0.7 0 1.267-0.425 1.267-0.95v-0.1c0-0.525-0.567-0.95-1.267-0.95zM26.733 8h-21.466c-0.7 0-1.267 0.425-1.267 0.95v0.1c0 0.525 0.567 0.95 1.267 0.95h21.466c0.7 0 1.267-0.425 1.267-0.95v-0.1c0-0.525-0.567-0.95-1.267-0.95z"></path>
        </symbol>
        <symbol id="icon-close" viewBox="0 0 32 32">
            <path fill="#fcfcfc" style="fill: var(--color2, #fcfcfc)" d="M23.884 6.706l-7.884 7.884-7.884-7.884c-0.177-0.162-0.414-0.262-0.674-0.262-0.551 0-0.998 0.447-0.998 0.998 0 0.26 0.099 0.497 0.262 0.674l-0.001-0.001 7.88 7.884-7.882 7.882c-0.181 0.181-0.293 0.43-0.293 0.706 0 0.551 0.447 0.998 0.998 0.998 0.275 0 0.524-0.111 0.705-0.292v0l7.886-7.882 7.884 7.884c0.177 0.162 0.414 0.262 0.674 0.262 0.551 0 0.998-0.447 0.998-0.998 0-0.26-0.099-0.497-0.262-0.674l0.001 0.001-7.884-7.884 7.884-7.886c0.181-0.181 0.293-0.43 0.293-0.706 0-0.551-0.447-0.998-0.998-0.998-0.275 0-0.524 0.111-0.705 0.292v0 0.002z"></path>
        </symbol>
        <symbol id="icon-arrow" viewBox="0 0 82 32">
            <path d="M81.414 17.414c0.781-0.781 0.781-2.047 0-2.828l-12.728-12.728c-0.781-0.781-2.047-0.781-2.828 0s-0.781 2.047 0 2.828l11.314 11.314-11.314 11.314c-0.781 0.781-0.781 2.047 0 2.828s2.047 0.781 2.828 0l12.728-12.728zM0 18h80v-4h-80v4z"></path>
        </symbol>
        <symbol id="icon-cat" viewBox="0 0 32 32">
            <path fill="#84a178" style="fill: var(--color1, #84a178)" d="M16 0c-8.788 0-16 7.212-16 16 0 7.499 5.262 14.312 12.25 16v-5.293c-0.692 0.152-1.33 0.156-2.034-0.052-0.946-0.279-1.714-0.909-2.284-1.869-0.364-0.613-1.008-1.278-1.68-1.23l-0.165-1.868c1.453-0.124 2.711 0.886 3.457 2.14 0.332 0.558 0.713 0.884 1.203 1.029 0.473 0.14 0.982 0.072 1.574-0.137 0.149-1.186 0.692-1.63 1.102-2.255v-0.001c-4.167-0.622-5.828-2.832-6.488-4.578-0.874-2.317-0.405-5.212 1.14-7.041 0.030-0.036 0.084-0.129 0.063-0.194-0.708-2.139 0.155-3.909 0.187-4.097 0.817 0.242 0.95-0.243 3.551 1.337l0.449 0.27c0.188 0.112 0.129 0.048 0.317 0.034 1.086-0.295 2.23-0.458 3.358-0.472 1.136 0.015 2.273 0.178 3.404 0.484l0.145 0.015c-0.013-0.002 0.040-0.009 0.127-0.062 3.248-1.968 3.132-1.324 4.003-1.608 0.032 0.188 0.883 1.987 0.182 4.099-0.095 0.291 2.816 2.956 1.203 7.235-0.659 1.746-2.32 3.957-6.487 4.578v0.001c0.534 0.814 1.176 1.247 1.173 2.927v6.608c6.988-1.688 12.25-8.501 12.25-16 0-8.788-7.212-16-16-16v0z"></path>
        </symbol>
        <symbol id="icon-cow" viewBox="0 0 32 32">
            <path d="M6.168 0.192c-0.261 0.225-1.006 1.781-1.274 2.63-0.319 1.052-0.427 1.841-0.384 2.931 0.058 1.556 0.449 2.735 1.31 3.968 0.224 0.323 0.405 0.601 0.405 0.624 0 0.015-0.138 0.030-0.311 0.030-0.746 0-2.143 0.248-3.214 0.571-1.701 0.511-2.7 1.405-2.7 2.405 0 0.353 0.319 0.954 0.659 1.262 0.659 0.594 2.1 1.157 3.649 1.428 0.536 0.098 2.128 0.263 2.483 0.271 0.065 0 0.087 0.346 0.087 1.48 0 0.977 0.036 1.736 0.109 2.202 0.261 1.668 1.071 3.434 2.143 4.682l0.369 0.428-0.246 0.398c-0.362 0.564-0.5 0.992-0.543 1.631-0.109 1.533 0.847 2.893 2.693 3.848 3.518 1.826 8.985 1.112 11.033-1.443 0.999-1.247 1.115-2.675 0.326-3.968l-0.246-0.398 0.442-0.534c0.825-0.992 1.361-1.984 1.767-3.239 0.34-1.067 0.471-2.097 0.471-3.727 0-0.744 0.022-1.36 0.058-1.36 0.333-0.008 1.933-0.18 2.44-0.271 1.557-0.271 2.968-0.827 3.649-1.428 0.34-0.308 0.659-0.909 0.659-1.262 0-1.112-1.129-2.014-3.229-2.555-0.688-0.18-1.984-0.398-2.613-0.436l-0.297-0.023 0.326-0.451c0.405-0.549 0.912-1.616 1.108-2.315 0.55-2.021 0.21-4.374-0.97-6.62-0.492-0.932-0.833-1.15-1.231-0.782-0.152 0.143-0.217 0.338-0.362 1.045-0.449 2.247-1.281 4.028-2.498 5.343l-0.536 0.586h-11.453l-0.478-0.518c-1.187-1.308-2.049-3.156-2.498-5.411-0.145-0.706-0.21-0.902-0.362-1.045-0.239-0.218-0.471-0.21-0.738 0.023zM7.095 4.649c0.384 0.842 0.862 1.631 1.426 2.36l0.449 0.579-0.471 0.353c-0.442 0.338-0.854 0.819-1.173 1.368l-0.138 0.248-0.348-0.473c-1.187-1.638-1.484-3.645-0.854-5.726 0.304-1.007 0.297-0.999 0.572-0.128 0.13 0.421 0.376 1.060 0.536 1.42zM25.94 3.063c0.297 0.894 0.413 1.608 0.413 2.532 0 1.368-0.362 2.525-1.122 3.562l-0.34 0.466-0.253-0.428c-0.297-0.526-0.804-1.075-1.267-1.39-0.195-0.128-0.347-0.255-0.347-0.271 0-0.023 0.137-0.195 0.311-0.383 0.804-0.894 1.665-2.502 2.092-3.885 0.13-0.428 0.261-0.782 0.282-0.782s0.13 0.263 0.232 0.579zM22.241 8.556c0.804 0.338 1.571 1.308 1.694 2.127 0.065 0.451 0.217 0.736 0.413 0.782 0.087 0.015 0.688 0.068 1.332 0.113 2.288 0.15 4.090 0.639 4.858 1.308 0.355 0.316 0.319 0.579-0.109 0.902-0.854 0.646-2.7 1.135-4.583 1.217-1.245 0.053-1.506 0.090-1.672 0.263-0.123 0.128-0.138 0.263-0.138 1.623 0 1.841-0.094 2.901-0.326 3.757-0.326 1.165-0.97 2.405-1.723 3.284l-0.311 0.361-0.644-0.383c-0.782-0.466-1.513-0.767-2.389-0.969-2.744-0.654-5.777-0.256-7.819 1.029l-0.471 0.301-0.297-0.353c-0.405-0.473-1.043-1.488-1.296-2.059-0.557-1.293-0.724-2.345-0.724-4.659 0-2.247 0.116-2.082-1.549-2.172-2.128-0.113-3.75-0.496-4.771-1.142-0.753-0.481-0.63-0.909 0.42-1.413 1.006-0.488 2.389-0.781 4.308-0.902 1.491-0.098 1.528-0.12 1.665-0.842 0.203-1.090 1.006-1.991 2.020-2.277 0.253-0.075 1.672-0.090 6.016-0.083l5.683 0.015 0.413 0.173zM18.172 24.112c1.774 0.436 3.099 1.247 3.671 2.254 0.137 0.233 0.195 0.473 0.224 0.842 0.029 0.458 0.007 0.571-0.166 0.947-0.804 1.706-3.757 2.833-6.762 2.578-3.613-0.301-5.987-2.315-5.053-4.291 0.507-1.067 2.223-2.089 4.033-2.39 0.297-0.045 0.594-0.098 0.652-0.113s0.71-0.015 1.448 0c1.006 0.023 1.491 0.068 1.955 0.173z"></path>
            <path d="M10.99 12.321c-0.449 0.15-0.753 0.346-1.158 0.751-0.355 0.338-0.384 0.736-0.087 0.977 0.275 0.225 0.536 0.195 0.869-0.098 0.42-0.368 0.746-0.518 1.151-0.518 0.405-0.008 0.717 0.135 1.151 0.518 0.333 0.293 0.594 0.323 0.869 0.098 0.145-0.12 0.188-0.218 0.188-0.443 0-0.233-0.051-0.338-0.304-0.594-0.717-0.721-1.781-0.999-2.679-0.691z"></path>
            <path d="M19.432 12.313c-0.463 0.173-1.057 0.564-1.296 0.857-0.232 0.286-0.239 0.609 0 0.849 0.239 0.256 0.529 0.241 0.876-0.045 0.854-0.706 1.491-0.729 2.281-0.075 0.203 0.173 0.434 0.308 0.507 0.308 0.355 0 0.644-0.316 0.644-0.691 0-0.24-0.601-0.797-1.144-1.060-0.601-0.293-1.318-0.346-1.868-0.143z"></path>
            <path d="M12.040 26.224c-0.21 0.203-0.282 0.496-0.174 0.729 0.080 0.188 0.203 0.263 0.702 0.398 0.224 0.060 0.319 0.135 0.398 0.323 0.101 0.248 0.109 0.248 0.666 0.27l0.557 0.023v-0.21c-0.007-0.301-0.174-0.736-0.391-1.037-0.253-0.346-0.695-0.571-1.195-0.616-0.34-0.030-0.427-0.015-0.565 0.12z"></path>
            <path d="M18.954 26.171c-0.362 0.098-0.883 0.586-1.028 0.969-0.065 0.173-0.13 0.481-0.137 0.684-0.015 0.323 0.014 0.398 0.188 0.556 0.427 0.376 0.992 0.083 0.992-0.518 0-0.293 0.217-0.496 0.601-0.571 0.405-0.075 0.55-0.24 0.557-0.624 0-0.504-0.449-0.699-1.173-0.496z"></path>
        </symbol>
        <symbol id="icon-ice-crema" viewBox="0 0 32 32">
            <path d="M16.108 0.107c0.080 0.214 0.241 1.252 0.241 1.573 0 0.797-0.295 1.54-0.837 2.122-0.449 0.482-0.897 0.75-1.975 1.185-1.198 0.489-1.694 0.783-2.256 1.339-0.569 0.569-0.904 1.192-1.024 1.921-0.134 0.797 0 1.359 0.408 1.68l0.208 0.161-0.328 0.208c-0.663 0.435-1.868 1.459-2.075 1.774-0.402 0.603-0.361 1.165 0.094 1.392l0.214 0.107-0.241 0.228c-0.361 0.341-0.435 0.576-0.382 1.192 0.033 0.408 0.020 0.629-0.074 0.964-0.114 0.435-0.114 0.442 0.033 0.75 0.147 0.301 0.562 0.683 0.937 0.843 0.181 0.080 0.187 0.107 0.228 0.723 0.020 0.355 0.053 1.486 0.080 2.517 0.020 1.031 0.067 1.975 0.107 2.089 0.033 0.121 0.161 0.281 0.274 0.361 0.388 0.268 0.656 0.556 0.83 0.89 0.194 0.382 0.408 1.319 1.058 4.559l0.455 2.276 0.281 0.268c0.536 0.529 1.56 0.77 3.247 0.77 1.694 0 2.705-0.234 3.24-0.763l0.288-0.274 0.415-2.109c0.917-4.613 0.997-4.867 1.714-5.436 0.221-0.181 0.435-0.402 0.475-0.502 0.047-0.114 0.094-0.991 0.127-2.316 0.027-1.178 0.067-2.343 0.094-2.591l0.040-0.449 0.435-0.328c0.549-0.422 0.763-0.803 0.763-1.393-0.007-0.696-0.462-1.459-1.292-2.142l-0.395-0.321 0.194-0.274c0.81-1.118 0.301-2.664-1.205-3.695l-0.455-0.315 0.167-0.174c0.743-0.797 0.864-3.173 0.241-4.827-0.375-0.984-1.232-2.055-2.283-2.845-0.515-0.388-1.935-1.245-2.062-1.245-0.027 0-0.027 0.047-0.007 0.107zM18.036 2.443c0.355 0.348 0.783 0.823 0.951 1.064 0.997 1.392 1.252 3.14 0.649 4.425-0.241 0.522-0.964 1.299-1.633 1.761-1.024 0.71-3.327 1.901-4.934 2.557-2.584 1.051-4.084 1.252-4.258 0.562-0.067-0.261 0.127-0.469 0.951-1.018 0.743-0.509 4.077-2.986 4.137-3.086 0.020-0.027-0.321 0.127-0.75 0.341-1.453 0.736-2.142 0.596-2.109-0.428 0.020-0.743 0.556-1.587 1.299-2.069 0.187-0.12 0.77-0.388 1.305-0.603 1.761-0.71 2.296-1.071 2.892-1.962 0.355-0.529 0.743-1.506 0.77-1.921 0.007-0.147 0.034-0.261 0.054-0.261s0.321 0.288 0.676 0.636zM19.864 10.049c0.489 0.274 0.997 0.743 1.218 1.111 0.388 0.663 0.187 1.325-0.649 2.169-0.91 0.924-2.464 1.808-4.171 2.37-1.573 0.515-3.079 0.756-5.235 0.83l-1.339 0.047 0.87 0.053c1.125 0.074 3.3 0.007 4.144-0.127 2.243-0.355 4.151-1.064 5.516-2.042 0.308-0.221 0.629-0.402 0.716-0.402 0.221 0 1.185 0.924 1.379 1.312 0.107 0.221 0.134 0.382 0.114 0.596-0.1 0.89-1.185 1.366-3.802 1.68-3.2 0.382-7.384 0.007-9.172-0.817-0.844-0.388-0.984-0.609-0.77-1.198 0.067-0.187 0.080-0.408 0.054-0.723-0.033-0.415-0.027-0.469 0.12-0.623 0.335-0.361 0.897-0.569 2.959-1.091 0.723-0.187 1.707-0.482 2.176-0.656 1.138-0.415 3.274-1.493 4.264-2.156 0.93-0.616 1.064-0.643 1.607-0.335zM10.974 18.243c1.406 0.408 2.651 0.529 4.967 0.482 1.741-0.034 2.812-0.141 4.358-0.415 0.315-0.053 0.589-0.1 0.623-0.1 0.074 0 0.053 2.571-0.027 3.247-0.087 0.716-0.281 1.272-0.489 1.406-0.214 0.141-1.285 0.288-2.718 0.368-2.939 0.161-5.958 0-6.895-0.375-0.509-0.207-0.562-0.475-0.569-2.959 0-1.654 0.013-1.881 0.1-1.848 0.053 0.020 0.348 0.107 0.649 0.194zM12.56 23.933c0.482 0.060 1.004 0.121 1.165 0.141l0.288 0.034-0.254 0.281c-0.328 0.355-0.83 1.064-1.011 1.426-0.207 0.415-0.274 0.442-0.582 0.274l-0.261-0.147-0.147-0.91c-0.080-0.495-0.167-0.971-0.187-1.051-0.060-0.174-0.12-0.174 0.991-0.047zM19.697 23.859c0 0.013-0.033 0.187-0.067 0.382-0.040 0.201-0.208 1.292-0.375 2.43-0.341 2.377-0.569 3.495-0.777 3.869-0.288 0.502-0.977 0.797-2.095 0.89-0.435 0.034-1.747-0.053-1.821-0.12-0.053-0.060 1.098-1.486 1.279-1.58 0.167-0.094 0.214-0.080 0.783 0.214 0.663 0.348 0.997 0.402 0.997 0.181s-0.174-0.435-0.602-0.73c-0.395-0.281-0.536-0.442-0.536-0.629 0-0.053 0.194-0.355 0.428-0.669s0.576-0.817 0.75-1.118l0.328-0.542 0.301 0.040c0.609 0.087 0.77 0.080 0.75-0.053-0.013-0.067-0.127-0.261-0.254-0.422-0.127-0.167-0.228-0.335-0.228-0.368 0-0.127 0.623-1.299 0.823-1.546 0.174-0.214 0.315-0.321 0.315-0.228zM15.513 24.395c0.335 0.221 1.593 1.312 1.674 1.446 0.034 0.060-1.259 2.082-1.513 2.37-0.027 0.034-0.167-0.033-0.308-0.141-0.141-0.114-0.663-0.475-1.165-0.803l-0.904-0.596 0.542-0.917c0.964-1.613 0.944-1.587 1.151-1.587 0.107 0 0.341 0.1 0.522 0.228zM18.050 24.636c-0.234 0.288-0.428 0.469-0.509 0.469-0.174 0-0.455-0.154-0.93-0.502l-0.395-0.288 0.79-0.047c0.428-0.020 0.844-0.047 0.917-0.060 0.536-0.087 0.536-0.080 0.127 0.428zM12.989 27.856c0.616 0.241 1.66 0.81 1.962 1.064 0.214 0.174 0.214 0.187 0.127 0.402-0.054 0.121-0.234 0.442-0.415 0.716-0.174 0.268-0.375 0.602-0.449 0.743-0.214 0.415-0.281 0.449-0.723 0.328-0.475-0.141-0.73-0.382-0.864-0.817-0.181-0.609-0.469-2.33-0.435-2.598 0.013-0.1 0.295-0.040 0.797 0.161z"></path>
        </symbol>
        <symbol id="icon-vector" viewBox="0 0 22 32">
            <path d="M3.103 0.726c-0.45 0.45-0.703 1.060-0.703 1.697s0.253 1.247 0.703 1.697l11.88 11.88-11.88 11.88c-0.437 0.453-0.679 1.059-0.674 1.688s0.258 1.231 0.703 1.676c0.445 0.445 1.047 0.697 1.676 0.703s1.236-0.236 1.688-0.674l13.577-13.577c0.45-0.45 0.703-1.060 0.703-1.697s-0.253-1.247-0.703-1.697l-13.577-13.577c-0.45-0.45-1.060-0.703-1.697-0.703s-1.247 0.253-1.697 0.703z"></path>
        </symbol>
        <symbol id="icon-weight" viewBox="0 0 32 32">
            <path d="M14.177 0.547c-3.974 0.589-7.247 2.796-8.451 5.685-0.384 0.913-0.488 1.473-0.488 2.573 0.007 0.812 0.037 1.114 0.162 1.553 0.259 0.863 0.443 1.301 0.827 1.919l0.355 0.575-0.399 0.489c-3.154 3.924-3.502 9.444-0.872 13.793 0.982 1.632 2.585 3.234 4.152 4.169l0.465 0.273 12.743-0.108 0.303-0.165c1.056-0.597 2.549-1.926 3.383-3.004 1.256-1.639 2.076-3.551 2.423-5.621 0.118-0.74 0.118-2.932-0.007-3.63-0.377-2.149-1.182-3.989-2.453-5.621-0.244-0.309-0.436-0.568-0.436-0.589 0-0.014 0.133-0.237 0.288-0.489 0.362-0.575 0.687-1.315 0.864-1.962 0.199-0.719 0.199-2.516 0-3.234-0.709-2.552-2.837-4.679-5.843-5.851-0.842-0.331-2.283-0.683-3.213-0.798-0.864-0.101-2.999-0.079-3.804 0.043zM18.676 1.718c3.945 0.769 6.833 3.184 7.365 6.16 0.118 0.668 0.044 1.804-0.155 2.437-0.199 0.618-0.569 1.344-1.005 1.962-0.177 0.252-0.325 0.539-0.325 0.633s0.155 0.338 0.377 0.582c1.847 2.048 2.822 4.614 2.822 7.389-0.007 3.155-1.219 5.922-3.553 8.093-0.399 0.374-0.968 0.841-1.271 1.042l-0.554 0.374-12.211 0.050-0.473-0.302c-1.714-1.114-3.258-2.954-4.115-4.909-1.079-2.472-1.189-5.34-0.31-7.913 0.465-1.337 1.086-2.429 2.031-3.579 0.384-0.46 0.561-0.733 0.561-0.863 0-0.108-0.192-0.46-0.443-0.827-0.886-1.287-1.248-2.717-1.034-4.068 0.222-1.366 0.842-2.487 1.987-3.601 1.492-1.445 3.575-2.401 6.020-2.76 1.012-0.151 3.25-0.093 4.285 0.101z"></path>
            <path d="M14.51 2.983c-3.029 0.496-5.4 2.178-6.176 4.384-0.177 0.496-0.207 0.69-0.207 1.402s0.030 0.906 0.207 1.402c0.111 0.316 0.318 0.755 0.458 0.978 0.384 0.618 0.554 0.64 1.315 0.18 1.138-0.697 2.445-1.208 3.804-1.488 0.916-0.187 2.674-0.259 3.671-0.144 1.559 0.18 3.25 0.74 4.602 1.538 0.384 0.223 0.776 0.41 0.872 0.41 0.561 0 1.278-1.617 1.278-2.875 0-2.796-2.674-5.189-6.464-5.786-0.805-0.129-2.585-0.129-3.361 0zM18.166 4.133c1.271 0.273 2.438 0.791 3.317 1.473 1.182 0.913 1.817 2.185 1.714 3.414-0.037 0.489-0.222 1.15-0.332 1.222-0.029 0.014-0.443-0.158-0.916-0.388-0.983-0.474-2.098-0.855-3.228-1.1-0.687-0.144-0.975-0.165-2.512-0.158-1.514 0-1.832 0.022-2.489 0.158-1.138 0.244-2.024 0.546-3.117 1.064-1.101 0.525-1.042 0.532-1.241-0.115-0.258-0.841-0.096-1.955 0.406-2.796 0.266-0.446 0.997-1.186 1.529-1.553 1.012-0.697 1.899-1.013 3.804-1.358 0.391-0.072 2.563 0.029 3.066 0.137z"></path>
            <path d="M16.962 13.405c-0.207 0.259-0.207 0.503 0.007 0.712 0.14 0.137 0.281 0.173 0.79 0.208 0.99 0.072 1.935 0.359 2.785 0.848 0.606 0.359 1.529 1.229 1.943 1.854 0.613 0.898 1.034 2.185 1.034 3.134 0 0.331 0.029 0.431 0.185 0.575 0.236 0.237 0.547 0.237 0.776 0 0.163-0.165 0.17-0.208 0.125-0.913-0.207-3.479-3.184-6.383-6.744-6.577l-0.739-0.043-0.163 0.201z"></path>
        </symbol>
        <symbol id="icon-close-line" viewBox="0 0 32 32">
            <path d="M17.253 16l7.369-7.369c0.131-0.154 0.21-0.355 0.21-0.574 0-0.491-0.398-0.889-0.889-0.889-0.22 0-0.42 0.080-0.576 0.211l0.001-0.001-7.369 7.369-7.369-7.377c-0.164-0.18-0.399-0.292-0.661-0.292-0.493 0-0.893 0.4-0.893 0.893 0 0.261 0.112 0.496 0.291 0.659l0.001 0.001 7.379 7.369-7.379 7.369c-0.193 0.164-0.315 0.407-0.315 0.679 0 0.491 0.398 0.889 0.889 0.889 0.272 0 0.515-0.122 0.678-0.314l0.001-0.001 7.379-7.369 7.368 7.369c0.154 0.131 0.355 0.21 0.574 0.21 0.491 0 0.889-0.398 0.889-0.889 0-0.22-0.080-0.42-0.211-0.576l0.001 0.001-7.368-7.369z"></path>
        </symbol>
        <symbol id="icon-close-cross" viewBox="0 0 32 32">
            <path d="M17.253 16l7.369-7.369c0.146-0.17 0.222-0.389 0.213-0.613s-0.101-0.436-0.26-0.594c-0.158-0.158-0.37-0.251-0.594-0.26s-0.442 0.067-0.612 0.213l-7.369 7.369-7.369-7.378c-0.167-0.167-0.394-0.261-0.631-0.261s-0.464 0.094-0.631 0.261c-0.167 0.167-0.261 0.394-0.261 0.631s0.094 0.464 0.261 0.631l7.378 7.369-7.378 7.369c-0.093 0.080-0.169 0.178-0.222 0.288s-0.083 0.23-0.088 0.353c-0.005 0.123 0.016 0.245 0.061 0.359s0.112 0.218 0.199 0.304c0.087 0.087 0.19 0.154 0.304 0.199s0.236 0.065 0.359 0.060c0.122-0.005 0.243-0.035 0.353-0.088s0.208-0.129 0.288-0.222l7.378-7.369 7.369 7.369c0.17 0.146 0.389 0.222 0.612 0.213s0.436-0.101 0.594-0.26c0.158-0.158 0.251-0.37 0.26-0.594s-0.067-0.442-0.213-0.612l-7.369-7.369z"></path>
        </symbol>
        <symbol id="icon-facebook" viewBox="0 0 32 32">
            <path style="fill: var(--color1, #F8D24E)" d="M16 32c8.837 0 16-7.163 16-16s-7.163-16-16-16c-8.837 0-16 7.163-16 16s7.163 16 16 16z"></path>
            <path d="M20.446 15.982h-2.61v9.619h-3.955v-9.619h-1.881v-3.38h1.881v-2.187c0-1.564 0.739-4.014 3.99-4.014l2.929 0.012v3.281h-2.125c-0.349 0-0.839 0.175-0.839 0.921v1.989h2.955l-0.346 3.377z"></path>
        </symbol>
        <symbol id="icon-github" viewBox="0 0 32 32">
            <path style="fill: var(--color1, #F8D24E)" d="M32 16c0 8.837-7.163 16-16 16s-16-7.163-16-16c0-8.837 7.163-16 16-16s16 7.163 16 16z"></path>
            <path d="M16 6.588c-5.169 0-9.412 4.242-9.412 9.412 0 4.411 3.095 8.419 7.206 9.412v-3.114c-0.407 0.089-0.782 0.092-1.197-0.030-0.556-0.164-1.008-0.535-1.344-1.1-0.214-0.361-0.593-0.752-0.988-0.723l-0.097-1.099c0.855-0.073 1.595 0.521 2.034 1.259 0.195 0.328 0.419 0.52 0.708 0.605 0.278 0.082 0.578 0.043 0.926-0.080 0.088-0.698 0.407-0.959 0.648-1.326v-0.001c-2.451-0.366-3.428-1.666-3.816-2.693-0.514-1.363-0.238-3.066 0.671-4.142 0.018-0.021 0.050-0.076 0.037-0.114-0.417-1.258 0.091-2.299 0.11-2.41 0.481 0.142 0.559-0.143 2.089 0.786l0.264 0.159c0.111 0.066 0.076 0.028 0.186 0.020 0.639-0.173 1.312-0.269 1.975-0.278 0.668 0.009 1.337 0.104 2.002 0.285l0.086 0.009c-0.007-0.001 0.023-0.005 0.075-0.036 1.911-1.157 1.842-0.779 2.355-0.946 0.019 0.111 0.519 1.169 0.107 2.411-0.056 0.171 1.657 1.739 0.708 4.256-0.388 1.027-1.365 2.328-3.816 2.693v0.001c0.314 0.479 0.692 0.734 0.69 1.722v3.887c4.111-0.993 7.206-5 7.206-9.412 0-5.169-4.242-9.412-9.412-9.412v0z"></path>
        </symbol>
        <symbol id="icon-telegram" viewBox="0 0 32 32">
            <path style="fill: var(--color1, #F8D24E)" d="M32 16c0 8.837-7.163 16-16 16s-16-7.163-16-16c0-8.837 7.163-16 16-16s16 7.163 16 16z"></path>
            <path d="M12.869 18.375l-0.318 4.169c0.454 0 0.651-0.182 0.887-0.401l2.13-1.9 4.415 3.017c0.81 0.421 1.38 0.199 1.598-0.695l2.898-12.672 0.001-0.001c0.257-1.117-0.433-1.554-1.222-1.28l-17.032 6.086c-1.162 0.421-1.145 1.026-0.198 1.3l4.354 1.264 10.115-5.907c0.476-0.294 0.909-0.131 0.553 0.163l-8.182 6.857z"></path>
        </symbol>
        <symbol id="icon-header-dots" viewBox="0 0 100 32">
            <path fill="#f8d24e" style="fill: var(--color1, #f8d24e)" d="M45.81 25.797c0 0.287-0.219 0.52-0.488 0.52s-0.488-0.233-0.488-0.52c0-0.287 0.219-0.52 0.488-0.52s0.488 0.233 0.488 0.52z"></path>
            <path fill="#f8d24e" style="fill: var(--color1, #f8d24e)" d="M46.949 25.104c0 0.287-0.219 0.52-0.488 0.52s-0.488-0.233-0.488-0.52c0-0.287 0.219-0.52 0.488-0.52s0.488 0.233 0.488 0.52z"></path>
            <path fill="#f8d24e" style="fill: var(--color1, #f8d24e)" d="M44.915 27.705c0 0.287-0.219 0.52-0.488 0.52s-0.488-0.233-0.488-0.52c0-0.287 0.219-0.52 0.488-0.52s0.488 0.233 0.488 0.52z"></path>
            <path fill="#f8d24e" style="fill: var(--color1, #f8d24e)" d="M45.972 27.011c0 0.287-0.219 0.52-0.488 0.52s-0.488-0.233-0.488-0.52c0-0.287 0.219-0.52 0.488-0.52s0.488 0.233 0.488 0.52z"></path>
            <path fill="#f8d24e" style="fill: var(--color1, #f8d24e)" d="M47.193 26.231c0 0.287-0.219 0.52-0.488 0.52s-0.488-0.233-0.488-0.52c0-0.287 0.219-0.52 0.488-0.52s0.488 0.233 0.488 0.52z"></path>
            <path fill="#f8d24e" style="fill: var(--color1, #f8d24e)" d="M48.332 25.537c0 0.287-0.219 0.52-0.488 0.52s-0.488-0.233-0.488-0.52c0-0.287 0.219-0.52 0.488-0.52s0.488 0.233 0.488 0.52z"></path>
            <path fill="#f8d24e" style="fill: var(--color1, #f8d24e)" d="M46.705 27.792c0 0.287-0.219 0.52-0.488 0.52s-0.488-0.233-0.488-0.52c0-0.287 0.219-0.52 0.488-0.52s0.488 0.233 0.488 0.52z"></path>
            <path fill="#f8d24e" style="fill: var(--color1, #f8d24e)" d="M47.762 27.098c0 0.287-0.219 0.52-0.488 0.52s-0.488-0.233-0.488-0.52c0-0.287 0.219-0.52 0.488-0.52s0.488 0.233 0.488 0.52z"></path>
            <path fill="#f8d24e" style="fill: var(--color1, #f8d24e)" d="M48.983 26.318c0 0.287-0.219 0.52-0.488 0.52s-0.488-0.233-0.488-0.52c0-0.287 0.219-0.52 0.488-0.52s0.488 0.233 0.488 0.52z"></path>
            <path fill="#f8d24e" style="fill: var(--color1, #f8d24e)" d="M50.122 25.624c0 0.287-0.219 0.52-0.488 0.52s-0.488-0.233-0.488-0.52c0-0.287 0.219-0.52 0.488-0.52s0.488 0.233 0.488 0.52z"></path>
            <path fill="#f8d24e" style="fill: var(--color1, #f8d24e)" d="M48.82 27.792c0 0.287-0.219 0.52-0.488 0.52s-0.488-0.233-0.488-0.52c0-0.287 0.219-0.52 0.488-0.52s0.488 0.233 0.488 0.52z"></path>
            <path fill="#f8d24e" style="fill: var(--color1, #f8d24e)" d="M49.878 27.098c0 0.287-0.219 0.52-0.488 0.52s-0.488-0.233-0.488-0.52c0-0.287 0.219-0.52 0.488-0.52s0.488 0.233 0.488 0.52z"></path>
            <path fill="#f8d24e" style="fill: var(--color1, #f8d24e)" d="M51.098 26.318c0 0.287-0.219 0.52-0.488 0.52s-0.488-0.233-0.488-0.52c0-0.287 0.219-0.52 0.488-0.52s0.488 0.233 0.488 0.52z"></path>
            <path fill="#f8d24e" style="fill: var(--color1, #f8d24e)" d="M52.238 25.624c0 0.287-0.219 0.52-0.488 0.52s-0.488-0.233-0.488-0.52c0-0.287 0.219-0.52 0.488-0.52s0.488 0.233 0.488 0.52z"></path>
            <path fill="#f8d24e" style="fill: var(--color1, #f8d24e)" d="M50.61 27.705c0 0.287-0.219 0.52-0.488 0.52s-0.488-0.233-0.488-0.52c0-0.287 0.219-0.52 0.488-0.52s0.488 0.233 0.488 0.52z"></path>
            <path fill="#f8d24e" style="fill: var(--color1, #f8d24e)" d="M51.668 27.011c0 0.287-0.219 0.52-0.488 0.52s-0.488-0.233-0.488-0.52c0-0.287 0.219-0.52 0.488-0.52s0.488 0.233 0.488 0.52z"></path>
            <path fill="#f8d24e" style="fill: var(--color1, #f8d24e)" d="M52.889 26.231c0 0.287-0.219 0.52-0.488 0.52s-0.488-0.233-0.488-0.52c0-0.287 0.219-0.52 0.488-0.52s0.488 0.233 0.488 0.52z"></path>
            <path fill="#f8d24e" style="fill: var(--color1, #f8d24e)" d="M54.028 25.537c0 0.287-0.219 0.52-0.488 0.52s-0.488-0.233-0.488-0.52c0-0.287 0.219-0.52 0.488-0.52s0.488 0.233 0.488 0.52z"></path>
            <path fill="#f8d24e" style="fill: var(--color1, #f8d24e)" d="M52.644 27.618c0 0.287-0.219 0.52-0.488 0.52s-0.488-0.233-0.488-0.52c0-0.287 0.219-0.52 0.488-0.52s0.488 0.233 0.488 0.52z"></path>
            <path fill="#f8d24e" style="fill: var(--color1, #f8d24e)" d="M53.702 26.925c0 0.287-0.219 0.52-0.488 0.52s-0.488-0.233-0.488-0.52c0-0.287 0.219-0.52 0.488-0.52s0.488 0.233 0.488 0.52z"></path>
            <path fill="#f8d24e" style="fill: var(--color1, #f8d24e)" d="M54.923 26.144c0 0.287-0.219 0.52-0.488 0.52s-0.488-0.233-0.488-0.52c0-0.287 0.219-0.52 0.488-0.52s0.488 0.233 0.488 0.52z"></path>
            <path fill="#f8d24e" style="fill: var(--color1, #f8d24e)" d="M56.062 25.45c0 0.287-0.219 0.52-0.488 0.52s-0.488-0.233-0.488-0.52c0-0.287 0.219-0.52 0.488-0.52s0.488 0.233 0.488 0.52z"></path>
            <path fill="#f8d24e" style="fill: var(--color1, #f8d24e)" d="M54.516 25.364c0 0.287-0.219 0.52-0.488 0.52s-0.488-0.233-0.488-0.52c0-0.287 0.219-0.52 0.488-0.52s0.488 0.233 0.488 0.52z"></path>
            <path fill="#f8d24e" style="fill: var(--color1, #f8d24e)" d="M55.574 24.67c0 0.287-0.219 0.52-0.488 0.52s-0.488-0.233-0.488-0.52c0-0.287 0.219-0.52 0.488-0.52s0.488 0.233 0.488 0.52z"></path>
            <path fill="#f8d24e" style="fill: var(--color1, #f8d24e)" d="M56.794 23.889c0 0.287-0.219 0.52-0.488 0.52s-0.488-0.233-0.488-0.52c0-0.287 0.219-0.52 0.488-0.52s0.488 0.233 0.488 0.52z"></path>
            <path fill="#f8d24e" style="fill: var(--color1, #f8d24e)" d="M57.933 23.196c0 0.287-0.219 0.52-0.488 0.52s-0.488-0.233-0.488-0.52c0-0.287 0.219-0.52 0.488-0.52s0.488 0.233 0.488 0.52z"></path>
        </symbol>
        <symbol id="icon-top-menu-lines" viewBox="0 0 32 32">
<path d="M26.733 14h-21.467c-0.7 0-1.267 0.425-1.267 0.95v0.1c0 0.525 0.567 0.95 1.267 0.95h21.467c0.7 0 1.267-0.425 1.267-0.95v-0.1c0-0.525-0.567-0.95-1.267-0.95z"></path>
<path d="M26.733 20h-21.467c-0.7 0-1.267 0.425-1.267 0.95v0.1c0 0.525 0.567 0.95 1.267 0.95h21.467c0.7 0 1.267-0.425 1.267-0.95v-0.1c0-0.525-0.567-0.95-1.267-0.95z"></path>
<path d="M26.733 8h-21.467c-0.7 0-1.267 0.425-1.267 0.95v0.1c0 0.525 0.567 0.95 1.267 0.95h21.467c0.7 0 1.267-0.425 1.267-0.95v-0.1c0-0.525-0.567-0.95-1.267-0.95z"></path>
</symbol>

<symbol id="icon-top-menu-cross" viewBox="0 0 32 32">
<path d="M23.884 6.706l-7.884 7.884-7.884-7.884c-0.19-0.174-0.439-0.267-0.696-0.261s-0.502 0.11-0.684 0.292c-0.182 0.182-0.286 0.427-0.292 0.684s0.088 0.506 0.261 0.696l7.88 7.884-7.882 7.882c-0.096 0.092-0.173 0.202-0.226 0.324s-0.081 0.253-0.083 0.386 0.023 0.265 0.073 0.388c0.050 0.123 0.124 0.235 0.218 0.329s0.206 0.169 0.329 0.219 0.255 0.075 0.388 0.074c0.133-0.002 0.264-0.029 0.386-0.082s0.232-0.13 0.324-0.226l7.886-7.882 7.884 7.884c0.19 0.174 0.439 0.267 0.696 0.262s0.502-0.11 0.684-0.292c0.182-0.182 0.286-0.427 0.292-0.684s-0.088-0.506-0.262-0.696l-7.884-7.884 7.884-7.886c0.096-0.092 0.173-0.202 0.226-0.324s0.081-0.253 0.083-0.386c0.002-0.133-0.023-0.265-0.073-0.388s-0.124-0.235-0.218-0.329c-0.094-0.094-0.206-0.169-0.329-0.219s-0.255-0.075-0.388-0.074-0.264 0.029-0.386 0.082c-0.122 0.053-0.232 0.13-0.324 0.226v0.002z"></path>
</symbol>
    </defs>
</svg>
